<svg width="375" height="667" viewBox="0 0 375 667" fill="none" xmlns="http://www.w3.org/2000/svg">
<path d="M193 303L195.377 306.536L193 310.071L190.623 306.536L193 303Z" fill="#FFD5E2"/>
<path d="M207.536 266L209.912 269.536L207.536 273.071L205.159 269.536L207.536 266Z" fill="#FFD5E2"/>
<path d="M235.536 232L237.912 235.536L235.536 239.071L233.159 235.536L235.536 232Z" fill="#FFD5E2"/>
<path d="M207 336L209.377 339.536L207 343.071L204.623 339.536L207 336Z" fill="#FFD5E2"/>
<path d="M163.536 313L165.912 316.536L163.536 320.071L161.159 316.536L163.536 313Z" fill="#FFD5E2"/>
<path d="M175.536 349L177.912 352.536L175.536 356.071L173.159 352.536L175.536 349Z" fill="#FFD5E2"/>
<path d="M143.536 241L145.912 244.536L143.536 248.071L141.159 244.536L143.536 241Z" fill="#FFD5E2"/>
<path d="M122.536 172L124.912 175.536L122.536 179.071L120.159 175.536L122.536 172Z" fill="#FFD5E2"/>
<path d="M163.536 162L165.912 165.536L163.536 169.071L161.159 165.536L163.536 162Z" fill="#FFD5E2"/>
<path d="M216.536 167L218.912 170.536L216.536 174.071L214.159 170.536L216.536 167Z" fill="#FFD5E2"/>
<path d="M260.536 190L262.912 193.536L260.536 197.071L258.159 193.536L260.536 190Z" fill="#FFD5E2"/>
<path d="M294.536 220L296.912 223.536L294.536 227.071L292.159 223.536L294.536 220Z" fill="#FFD5E2"/>
<path d="M314.536 274L316.912 277.536L314.536 281.071L312.159 277.536L314.536 274Z" fill="#FFD5E2"/>
<path d="M310.536 302L312.912 305.536L310.536 309.071L308.159 305.536L310.536 302Z" fill="#FFD5E2"/>
<path d="M321.536 344L323.912 347.536L321.536 351.071L319.159 347.536L321.536 344Z" fill="#FFD5E2"/>
<path d="M324.536 385L326.912 388.536L324.536 392.071L322.159 388.536L324.536 385Z" fill="#FFD5E2"/>
<path d="M284.536 456L286.912 459.536L284.536 463.071L282.159 459.536L284.536 456Z" fill="#FFD5E2"/>
<path d="M248.536 474L250.912 477.536L248.536 481.071L246.159 477.536L248.536 474Z" fill="#FFD5E2"/>
<path d="M207.536 485L209.912 488.536L207.536 492.071L205.159 488.536L207.536 485Z" fill="#FFD5E2"/>
<path d="M160.536 491L162.912 494.536L160.536 498.071L158.159 494.536L160.536 491Z" fill="#FFD5E2"/>
<path d="M95.5355 471L97.9121 474.536L95.5355 478.071L93.1589 474.536L95.5355 471Z" fill="#FFD5E2"/>
<path d="M72.5355 429L74.9121 432.536L72.5355 436.071L70.1589 432.536L72.5355 429Z" fill="#FFD5E2"/>
<path d="M51.5355 400L53.9121 403.536L51.5355 407.071L49.1589 403.536L51.5355 400Z" fill="#FFD5E2"/>
<path d="M51.5355 354L53.9121 357.536L51.5355 361.071L49.1589 357.536L51.5355 354Z" fill="#FFD5E2"/>
<path d="M56.5355 311L58.9121 314.536L56.5355 318.071L54.1589 314.536L56.5355 311Z" fill="#FFD5E2"/>
<path d="M82.5355 227L84.9121 230.536L82.5355 234.071L80.1589 230.536L82.5355 227Z" fill="#FFD5E2"/>
<path d="M96.5355 195L98.9121 198.536L96.5355 202.071L94.1589 198.536L96.5355 195Z" fill="#FFD5E2"/>
<path d="M56.5355 271L58.9121 274.536L56.5355 278.071L54.1589 274.536L56.5355 271Z" fill="#FFD5E2"/>
<path d="M185 220L187.377 223.536L185 227.071L182.623 223.536L185 220Z" fill="#FFD5E2"/>
<path d="M171.536 251L173.912 254.536L171.536 258.071L169.159 254.536L171.536 251Z" fill="#FFD5E2"/>
<path d="M111.536 269L113.912 272.536L111.536 276.071L109.159 272.536L111.536 269Z" fill="#FFD5E2"/>
<path d="M143.536 295L145.912 298.536L143.536 302.071L141.159 298.536L143.536 295Z" fill="#FFD5E2"/>
<path d="M111.536 320L113.912 323.536L111.536 327.071L109.159 323.536L111.536 320Z" fill="#FFD5E2"/>
<path d="M126.536 363L128.912 366.536L126.536 370.071L124.159 366.536L126.536 363Z" fill="#FFD5E2"/>
<path d="M91.5355 359L93.9121 362.536L91.5355 366.071L89.1589 362.536L91.5355 359Z" fill="#FFD5E2"/>
<path d="M111.536 427L113.912 430.536L111.536 434.071L109.159 430.536L111.536 427Z" fill="#FFD5E2"/>
<path d="M185 441L187.377 444.536L185 448.071L182.623 444.536L185 441Z" fill="#FFD5E2"/>
<path d="M245.536 436L247.912 439.536L245.536 443.071L243.159 439.536L245.536 436Z" fill="#FFD5E2"/>
<path d="M200.536 388L202.912 391.536L200.536 395.071L198.159 391.536L200.536 388Z" fill="#FFD5E2"/>
<path d="M146.536 392L148.912 395.536L146.536 399.071L144.159 395.536L146.536 392Z" fill="#FFD5E2"/>
<path d="M239.536 349L241.912 352.536L239.536 356.071L237.159 352.536L239.536 349Z" fill="#FFD5E2"/>
<path d="M256.536 377L258.912 380.536L256.536 384.071L254.159 380.536L256.536 377Z" fill="#FFD5E2"/>
<path d="M276.536 333L278.912 336.536L276.536 340.071L274.159 336.536L276.536 333Z" fill="#FFD5E2"/>
<path d="M263.536 273L265.912 276.536L263.536 280.071L261.159 276.536L263.536 273Z" fill="#FFD5E2"/>
<path d="M226.536 295L228.912 298.536L226.536 302.071L224.159 298.536L226.536 295Z" fill="#FFD5E2"/>
</svg>
