<svg width="375" height="667" viewBox="0 0 375 667" fill="none" xmlns="http://www.w3.org/2000/svg">
<rect width="375" height="667" fill="white"/>
<path fill-rule="evenodd" clip-rule="evenodd" d="M375 0H0V667H375V0ZM288 274.5L245 227L188 222.5L130 224.5L87 278.5L85.5 333V390L131.5 438.5L188 443.5L248.5 438.5L291.5 390V333L288 274.5Z" fill="#212421"/>
<path d="M245 227L288 274.5L291.5 333V390L248.5 438.5L188 443.5L131.5 438.5L85.5 390V333L87 278.5L130 224.5L188 222.5L245 227Z" fill="#212421"/>
<path d="M245 227L288 274.5M245 227L220.5 259.5M245 227L188 222.5M288 274.5L239.5 297M288 274.5L291.5 333M291.5 390L248.5 438.5M291.5 390L246 368.5M291.5 390V333M248.5 438.5L220.5 394M248.5 438.5L188 443.5M131.5 438.5L85.5 390M131.5 438.5L155.5 394M131.5 438.5L188 443.5M85.5 390L129 366.5M85.5 390V333M87 278.5L130 224.5M87 278.5L125 292M87 278.5L85.5 333M130 224.5L154 268.5M130 224.5L188 222.5M154 268.5L125 292M154 268.5L220.5 259.5M154 268.5L188 222.5M154 268.5L166.5 315.5M154 268.5L195 304.5M125 292L129 366.5M125 292L166.5 315.5M125 292L85.5 333M129 366.5L155.5 394M129 366.5L166.5 315.5M129 366.5L178 351M129 366.5L85.5 333M155.5 394H220.5M155.5 394L178 351M155.5 394L188 443.5M220.5 394L246 368.5M220.5 394L178 351M220.5 394L188 443.5M220.5 394L210 338.5M246 368.5L239.5 297M246 368.5L210 338.5M246 368.5L291.5 333M239.5 297L220.5 259.5M239.5 297L210 338.5M239.5 297L195 304.5M239.5 297L291.5 333M220.5 259.5L195 304.5M220.5 259.5L188 222.5M210 338.5L178 351M210 338.5L166.5 315.5M210 338.5L195 304.5M178 351L166.5 315.5M166.5 315.5L195 304.5" stroke="#FFD5E2"/>
<path d="M196 302L198.377 305.536L196 309.071L193.623 305.536L196 302Z" fill="#FFD5E2"/>
<path d="M221 257L223.377 260.536L221 264.071L218.623 260.536L221 257Z" fill="#FFD5E2"/>
<path d="M245.536 224L247.912 227.536L245.536 231.071L243.159 227.536L245.536 224Z" fill="#FFD5E2"/>
<path d="M210 335L212.377 338.536L210 342.071L207.623 338.536L210 335Z" fill="#FFD5E2"/>
<path d="M166.536 312L168.912 315.536L166.536 319.071L164.159 315.536L166.536 312Z" fill="#FFD5E2"/>
<path d="M178.536 348L180.912 351.536L178.536 355.071L176.159 351.536L178.536 348Z" fill="#FFD5E2"/>
<path d="M130 221L132.377 224.536L130 228.071L127.623 224.536L130 221Z" fill="#FFD5E2"/>
<path d="M188 219L190.377 222.536L188 226.071L185.623 222.536L188 219Z" fill="#FFD5E2"/>
<path d="M154.536 265L156.912 268.536L154.536 272.071L152.159 268.536L154.536 265Z" fill="#FFD5E2"/>
<path d="M86.5355 275L88.9121 278.536L86.5355 282.071L84.1589 278.536L86.5355 275Z" fill="#FFD5E2"/>
<path d="M125 290L127.377 293.536L125 297.071L122.623 293.536L125 290Z" fill="#FFD5E2"/>
<path d="M86 330L88.3765 333.536L86 337.071L83.6234 333.536L86 330Z" fill="#FFD5E2"/>
<path d="M129.536 362L131.912 365.536L129.536 369.071L127.159 365.536L129.536 362Z" fill="#FFD5E2"/>
<path d="M86 387L88.3765 390.536L86 394.071L83.6234 390.536L86 387Z" fill="#FFD5E2"/>
<path d="M132.536 434L134.912 437.536L132.536 441.071L130.159 437.536L132.536 434Z" fill="#FFD5E2"/>
<path d="M188 441L190.377 444.536L188 448.071L185.623 444.536L188 441Z" fill="#FFD5E2"/>
<path d="M247.536 434L249.912 437.536L247.536 441.071L245.159 437.536L247.536 434Z" fill="#FFD5E2"/>
<path d="M221 391L223.377 394.536L221 398.071L218.623 394.536L221 391Z" fill="#FFD5E2"/>
<path d="M155 391L157.377 394.536L155 398.071L152.623 394.536L155 391Z" fill="#FFD5E2"/>
<path d="M246.536 365L248.912 368.536L246.536 372.071L244.159 368.536L246.536 365Z" fill="#FFD5E2"/>
<path d="M292 387L294.377 390.536L292 394.071L289.623 390.536L292 387Z" fill="#FFD5E2"/>
<path d="M292 330L294.377 333.536L292 337.071L289.623 333.536L292 330Z" fill="#FFD5E2"/>
<path d="M287.536 271L289.912 274.536L287.536 278.071L285.159 274.536L287.536 271Z" fill="#FFD5E2"/>
<path d="M239 293L241.377 296.536L239 300.071L236.623 296.536L239 293Z" fill="#FFD5E2"/>
</svg>
