<svg width="375" height="667" viewBox="0 0 375 667" fill="none" xmlns="http://www.w3.org/2000/svg">
<path id="crystal-outer" d="M188.167 153.502L150.449 209.615M188.167 153.502L176.283 196M188.167 153.502L206 214.5M188.167 153.502L235.028 223.215M298.855 318.167L278.463 309.223M298.855 318.167L279.171 288.885M298.855 318.167L281.889 343.406M298.855 318.167L272 325M188.167 482.833L162.884 445.219M188.167 482.833L198.336 448.5M188.167 482.833L218.146 438.235M188.167 482.833L178.488 441.5M77.4802 318.167L108 306.5M77.4802 318.167L97.5756 288.272M77.4802 318.167L97.5756 348.063M77.4802 318.167L108 334.952M278.463 309.223L272 325M278.463 309.223L279.171 288.885M272 325L268 293M272 325L281.889 343.406M272 325L268 348.063M108 306.5L119.318 280.5M108 306.5L97.5756 288.272M108 306.5L108 334.952M119.318 280.5L97.5756 288.272M119.318 280.5L119.318 255.927M119.318 280.5L132.741 255.927M97.5756 288.272L119.318 255.927M119.318 255.927L131.073 238.439M132.741 255.927L165.5 238.439M132.741 255.927L150.449 209.615M132.741 255.927L131.073 238.439M165.5 238.439L196 232.5M165.5 238.439L176.283 196M165.5 238.439L150.449 209.615M150.449 209.615L176.283 196M150.449 209.615L131.073 238.439M176.283 196L206 214.5M176.283 196L196 232.5M206 214.5L196 232.5M206 214.5L235.028 223.215M206 214.5L221.86 238.439M196 232.5L221.86 238.439M235.028 223.215L221.86 238.439M235.028 223.215L253.102 250.103M221.86 238.439L253.102 250.103M221.86 238.439L248 259.603M253.102 250.103L259.488 259.603M268 293L279.171 288.885M268 293L248 259.603M259.488 259.603L279.171 288.885M259.488 259.603L248 259.603M162.884 445.219L156 411M162.884 445.219L132.741 400.377M162.884 445.219L178.488 441.5M198.336 448.5L218.146 438.235M198.336 448.5L203 428.5M198.336 448.5L178.488 441.5M218.146 438.235L230.993 419.122M230.993 419.122L221.86 400.377M230.993 419.122L203 428.5M230.993 419.122L241 404.236M221.86 400.377L203 428.5M221.86 400.377L241 387.5M221.86 400.377L184.25 406.5M203 428.5L184.25 406.5M203 428.5L178.488 441.5M156 411L132.741 400.377M156 411L139.5 387.5M156 411L178.488 441.5M156 411L184.25 406.5M132.741 400.377L139.5 387.5M132.741 400.377L111.411 368.645M139.5 387.5L123 365.453M139.5 387.5L184.25 406.5M241 387.5L259.488 365.453M241 387.5V404.236M241 387.5L252.962 386.44M264.924 368.645L281.889 343.406M264.924 368.645L259.488 365.453M264.924 368.645L252.962 386.44M281.889 343.406L268 348.063M123 365.453L111.411 368.645M123 365.453L97.5756 348.063M123 365.453L108 334.952M111.411 368.645L97.5756 348.063M97.5756 348.063L108 334.952M178.488 441.5L184.25 406.5M259.488 365.453L268 348.063M241 404.236L252.962 386.44" stroke="#FFD5E2"/>
</svg>
