<svg width="375" height="667" viewBox="0 0 375 667" fill="none" xmlns="http://www.w3.org/2000/svg">
<path id="Rectangle 75" d="M165.536 235L167.912 238.536L165.536 242.071L163.159 238.536L165.536 235Z" fill="#FFD5E2"/>
<path id="Rectangle 147" d="M132.536 253L134.912 256.536L132.536 260.071L130.159 256.536L132.536 253Z" fill="#FFD5E2"/>
<path id="Rectangle 77" d="M119.536 277L121.912 280.536L119.536 284.071L117.159 280.536L119.536 277Z" fill="#FFD5E2"/>
<path id="Rectangle 78" d="M119.536 253L121.912 256.536L119.536 260.071L117.159 256.536L119.536 253Z" fill="#FFD5E2"/>
<path id="Rectangle 79" d="M98.5356 285L100.912 288.536L98.5356 292.071L96.1591 288.536L98.5356 285Z" fill="#FFD5E2"/>
<path id="Rectangle 80" d="M78.5356 314L80.9122 317.536L78.5356 321.071L76.1591 317.536L78.5356 314Z" fill="#FFD5E2"/>
<path id="Rectangle 81" d="M108.536 303L110.912 306.536L108.536 310.071L106.159 306.536L108.536 303Z" fill="#FFD5E2"/>
<path id="Rectangle 145" d="M140.536 384L142.912 387.536L140.536 391.071L138.159 387.536L140.536 384Z" fill="#FFD5E2"/>
<path id="Rectangle 146" d="M156.536 408L158.912 411.536L156.536 415.071L154.159 411.536L156.536 408Z" fill="#FFD5E2"/>
<path id="Rectangle 88" d="M108.536 331L110.912 334.536L108.536 338.071L106.159 334.536L108.536 331Z" fill="#FFD5E2"/>
<path id="Rectangle 89" d="M98.5356 345L100.912 348.536L98.5356 352.071L96.1591 348.536L98.5356 345Z" fill="#FFD5E2"/>
<path id="Rectangle 90" d="M122.536 362L124.912 365.536L122.536 369.071L120.159 365.536L122.536 362Z" fill="#FFD5E2"/>
<path id="Rectangle 91" d="M111.536 365L113.912 368.536L111.536 372.071L109.159 368.536L111.536 365Z" fill="#FFD5E2"/>
<path id="Rectangle 92" d="M133.536 397L135.912 400.536L133.536 404.071L131.159 400.536L133.536 397Z" fill="#FFD5E2"/>
<path id="Rectangle 93" d="M163.536 441L165.912 444.536L163.536 448.071L161.159 444.536L163.536 441Z" fill="#FFD5E2"/>
<path id="Rectangle 94" d="M188.536 478L190.912 481.536L188.536 485.071L186.159 481.536L188.536 478Z" fill="#FFD5E2"/>
<path id="Rectangle 95" d="M217.536 436L219.912 439.536L217.536 443.071L215.159 439.536L217.536 436Z" fill="#FFD5E2"/>
<path id="Rectangle 96" d="M198.536 445L200.912 448.536L198.536 452.071L196.159 448.536L198.536 445Z" fill="#FFD5E2"/>
<path id="Rectangle 97" d="M178.536 438L180.912 441.536L178.536 445.071L176.159 441.536L178.536 438Z" fill="#FFD5E2"/>
<path id="Rectangle 98" d="M203.536 425L205.912 428.536L203.536 432.071L201.159 428.536L203.536 425Z" fill="#FFD5E2"/>
<path id="Rectangle 99" d="M230.536 415L232.912 418.536L230.536 422.071L228.159 418.536L230.536 415Z" fill="#FFD5E2"/>
<path id="Rectangle 100" d="M241.536 401L243.912 404.536L241.536 408.071L239.159 404.536L241.536 401Z" fill="#FFD5E2"/>
<path id="Rectangle 101" d="M250.536 383L252.912 386.536L250.536 390.071L248.159 386.536L250.536 383Z" fill="#FFD5E2"/>
<path id="Rectangle 102" d="M240.536 384L242.912 387.536L240.536 391.071L238.159 387.536L240.536 384Z" fill="#FFD5E2"/>
<path id="Rectangle 108" d="M221.536 397L223.912 400.536L221.536 404.071L219.159 400.536L221.536 397Z" fill="#FFD5E2"/>
<path id="Rectangle 111" d="M258.536 362L260.912 365.536L258.536 369.071L256.159 365.536L258.536 362Z" fill="#FFD5E2"/>
<path id="Rectangle 113" d="M282.536 340L284.912 343.536L282.536 347.071L280.159 343.536L282.536 340Z" fill="#FFD5E2"/>
<path id="Rectangle 112" d="M265.536 365L267.912 368.536L265.536 372.071L263.159 368.536L265.536 365Z" fill="#FFD5E2"/>
<path id="Rectangle 114" d="M297.536 315L299.912 318.536L297.536 322.071L295.159 318.536L297.536 315Z" fill="#FFD5E2"/>
<path id="Rectangle 107" d="M184.536 403L186.912 406.536L184.536 410.071L182.159 406.536L184.536 403Z" fill="#FFD5E2"/>
<path id="Rectangle 116" d="M271.536 322L273.912 325.536L271.536 329.071L269.159 325.536L271.536 322Z" fill="#FFD5E2"/>
<path id="Rectangle 117" d="M267.536 344L269.912 347.536L267.536 351.071L265.159 347.536L267.536 344Z" fill="#FFD5E2"/>
<path id="Rectangle 124" d="M278.536 306L280.912 309.536L278.536 313.071L276.159 309.536L278.536 306Z" fill="#FFD5E2"/>
<path id="Rectangle 125" d="M279.536 285L281.912 288.536L279.536 292.071L277.159 288.536L279.536 285Z" fill="#FFD5E2"/>
<path id="Rectangle 126" d="M248.536 256L250.912 259.536L248.536 263.071L246.159 259.536L248.536 256Z" fill="#FFD5E2"/>
<path id="Rectangle 129" d="M267.536 290L269.912 293.536L267.536 297.071L265.159 293.536L267.536 290Z" fill="#FFD5E2"/>
<path id="Rectangle 131" d="M260.536 256L262.912 259.536L260.536 263.071L258.159 259.536L260.536 256Z" fill="#FFD5E2"/>
<path id="Rectangle 132" d="M252.536 245L254.912 248.536L252.536 252.071L250.159 248.536L252.536 245Z" fill="#FFD5E2"/>
<path id="Rectangle 133" d="M234.536 220L236.912 223.536L234.536 227.071L232.159 223.536L234.536 220Z" fill="#FFD5E2"/>
<path id="Rectangle 134" d="M188.536 153L190.912 156.536L188.536 160.071L186.159 156.536L188.536 153Z" fill="#FFD5E2"/>
<path id="Rectangle 135" d="M149.536 206L151.912 209.536L149.536 213.071L147.159 209.536L149.536 206Z" fill="#FFD5E2"/>
<path id="Rectangle 136" d="M131.536 236L133.912 239.536L131.536 243.071L129.159 239.536L131.536 236Z" fill="#FFD5E2"/>
<path id="Rectangle 137" d="M176.536 193L178.912 196.536L176.536 200.071L174.159 196.536L176.536 193Z" fill="#FFD5E2"/>
<path id="Rectangle 138" d="M206.536 211L208.912 214.536L206.536 218.071L204.159 214.536L206.536 211Z" fill="#FFD5E2"/>
<path id="Rectangle 139" d="M195.536 229L197.912 232.536L195.536 236.071L193.159 232.536L195.536 229Z" fill="#FFD5E2"/>
<path id="Rectangle 140" d="M221.536 235L223.912 238.536L221.536 242.071L219.159 238.536L221.536 235Z" fill="#FFD5E2"/>
</svg>
