<svg width="375" height="667" viewBox="0 0 375 667" fill="none" xmlns="http://www.w3.org/2000/svg">
<rect width="375" height="667" fill="white"/>
<path fill-rule="evenodd" clip-rule="evenodd" d="M375 0H0V667H375V0ZM163.5 166L122 175.5L96 197.5L82.5 228L56.5 272V312L51.5 355.5V401.5L71.5 431L96 474.5L160.5 493L207 489L248 477.5L285 460L324 388L321.5 348L310.5 305.5L314.5 277.5L294.5 223.5L260.5 193L217 170.5L163.5 166Z" fill="#212421"/>
<path d="M122 175.5L163.5 166L217 170.5L260.5 193L294.5 223.5L314.5 277.5L310.5 305.5L321.5 348L324 388L285 460L248 477.5L207 489L160.5 493L96 474.5L71.5 431L51.5 401.5V355.5L56.5 312V272L82.5 228L96 197.5L122 175.5Z" fill="#212421"/>
<path d="M236.5 234.5L264 277.5M236.5 234.5L207 269M236.5 234.5L185 223.5M236.5 234.5L217 170.5M236.5 234.5L294.5 223.5M236.5 234.5L260.5 193M264 277.5L227 298M264 277.5L277.5 336.5M264 277.5H314.5M264 277.5L294.5 223.5M257 381L245.5 439.5M257 381L239.5 352M257 381L277.5 336.5M257 381L285 460M257 381L324 388M245.5 439.5L202 392.5M245.5 439.5L185 444.5M245.5 439.5L207 489M245.5 439.5L248 477.5M245.5 439.5L285 460M111 431L91.5 362.5M111 431L146.5 395M111 431L185 444.5M111 431L96 474.5M111 431H71.5M111 431L160.5 493M91.5 362.5L126 367.5M91.5 362.5L111 323M91.5 362.5L51.5 355.5M91.5 362.5L51.5 401.5M91.5 362.5L71.5 431M111 272L143.5 244.5M111 272L143.5 298M111 272V323M111 272L82.5 228M111 272H56.5M143.5 244.5L171 255M143.5 244.5L185 223.5M143.5 244.5L122 175.5M143.5 244.5L96 197.5M143.5 244.5L82.5 228M171 255L143.5 298M171 255L207 269M171 255L185 223.5M171 255L163.5 317M171 255L192 305.5M143.5 298L126 367.5M143.5 298L163.5 317M143.5 298L111 323M126 367.5L146.5 395M126 367.5L163.5 317M126 367.5L175 352M126 367.5L111 323M146.5 395L202 392.5M146.5 395L175 352M146.5 395L185 444.5M202 392.5L239.5 352M202 392.5L175 352M202 392.5L185 444.5M202 392.5L207 339.5M239.5 352L227 298M239.5 352L207 339.5M239.5 352L277.5 336.5M227 298L207 269M227 298L207 339.5M227 298L192 305.5M227 298L277.5 336.5M207 269L192 305.5M207 269L185 223.5M207 339.5L175 352M207 339.5L163.5 317M207 339.5L192 305.5M175 352L163.5 317M163.5 317L192 305.5M277.5 336.5L321.5 348M277.5 336.5L310.5 305.5M185 223.5L217 170.5M185 223.5L163.5 166M111 323L56.5 312M185 444.5L160.5 493M217 170.5L260.5 193M217 170.5L163.5 166M163.5 166L122 175.5M122 175.5L96 197.5M96 197.5L82.5 228M82.5 228L56.5 272M56.5 272V312M56.5 312L51.5 355.5M51.5 355.5V401.5M51.5 401.5L71.5 431M71.5 431L96 474.5M96 474.5L160.5 493M160.5 493L207 489M207 489L248 477.5M248 477.5L285 460M285 460L324 388M324 388L321.5 348M321.5 348L310.5 305.5M310.5 305.5L314.5 277.5M314.5 277.5L294.5 223.5M294.5 223.5L260.5 193" stroke="#FFD5E2"/>
<path d="M122 175.5L163.5 166L217 170.5L260.5 193L294.5 223.5L314.5 277.5L310.5 305.5L321.5 348L324 388L285 460L248 477.5L207 489L160.5 493L96 474.5L71.5 431L51.5 401.5V355.5L56.5 312V272L82.5 228L96 197.5L122 175.5Z" stroke="#FFD5E2"/>
<path d="M193 303L195.377 306.536L193 310.071L190.623 306.536L193 303Z" fill="#FFD5E2"/>
<path d="M207.536 266L209.912 269.536L207.536 273.071L205.159 269.536L207.536 266Z" fill="#FFD5E2"/>
<path d="M235.536 232L237.912 235.536L235.536 239.071L233.159 235.536L235.536 232Z" fill="#FFD5E2"/>
<path d="M207 336L209.377 339.536L207 343.071L204.623 339.536L207 336Z" fill="#FFD5E2"/>
<path d="M163.536 313L165.912 316.536L163.536 320.071L161.159 316.536L163.536 313Z" fill="#FFD5E2"/>
<path d="M175.536 349L177.912 352.536L175.536 356.071L173.159 352.536L175.536 349Z" fill="#FFD5E2"/>
<path d="M143.536 241L145.912 244.536L143.536 248.071L141.159 244.536L143.536 241Z" fill="#FFD5E2"/>
<path d="M122.536 172L124.912 175.536L122.536 179.071L120.159 175.536L122.536 172Z" fill="#FFD5E2"/>
<path d="M163.536 162L165.912 165.536L163.536 169.071L161.159 165.536L163.536 162Z" fill="#FFD5E2"/>
<path d="M216.536 167L218.912 170.536L216.536 174.071L214.159 170.536L216.536 167Z" fill="#FFD5E2"/>
<path d="M260.536 190L262.912 193.536L260.536 197.071L258.159 193.536L260.536 190Z" fill="#FFD5E2"/>
<path d="M294.536 220L296.912 223.536L294.536 227.071L292.159 223.536L294.536 220Z" fill="#FFD5E2"/>
<path d="M314.536 274L316.912 277.536L314.536 281.071L312.159 277.536L314.536 274Z" fill="#FFD5E2"/>
<path d="M310.536 302L312.912 305.536L310.536 309.071L308.159 305.536L310.536 302Z" fill="#FFD5E2"/>
<path d="M321.536 344L323.912 347.536L321.536 351.071L319.159 347.536L321.536 344Z" fill="#FFD5E2"/>
<path d="M324.536 385L326.912 388.536L324.536 392.071L322.159 388.536L324.536 385Z" fill="#FFD5E2"/>
<path d="M284.536 456L286.912 459.536L284.536 463.071L282.159 459.536L284.536 456Z" fill="#FFD5E2"/>
<path d="M248.536 474L250.912 477.536L248.536 481.071L246.159 477.536L248.536 474Z" fill="#FFD5E2"/>
<path d="M207.536 485L209.912 488.536L207.536 492.071L205.159 488.536L207.536 485Z" fill="#FFD5E2"/>
<path d="M160.536 491L162.912 494.536L160.536 498.071L158.159 494.536L160.536 491Z" fill="#FFD5E2"/>
<path d="M95.5355 471L97.9121 474.536L95.5355 478.071L93.1589 474.536L95.5355 471Z" fill="#FFD5E2"/>
<path d="M72.5355 429L74.9121 432.536L72.5355 436.071L70.1589 432.536L72.5355 429Z" fill="#FFD5E2"/>
<path d="M51.5355 400L53.9121 403.536L51.5355 407.071L49.1589 403.536L51.5355 400Z" fill="#FFD5E2"/>
<path d="M51.5355 354L53.9121 357.536L51.5355 361.071L49.1589 357.536L51.5355 354Z" fill="#FFD5E2"/>
<path d="M56.5355 311L58.9121 314.536L56.5355 318.071L54.1589 314.536L56.5355 311Z" fill="#FFD5E2"/>
<path d="M82.5355 227L84.9121 230.536L82.5355 234.071L80.1589 230.536L82.5355 227Z" fill="#FFD5E2"/>
<path d="M96.5355 195L98.9121 198.536L96.5355 202.071L94.1589 198.536L96.5355 195Z" fill="#FFD5E2"/>
<path d="M56.5355 271L58.9121 274.536L56.5355 278.071L54.1589 274.536L56.5355 271Z" fill="#FFD5E2"/>
<path d="M185 220L187.377 223.536L185 227.071L182.623 223.536L185 220Z" fill="#FFD5E2"/>
<path d="M171.536 251L173.912 254.536L171.536 258.071L169.159 254.536L171.536 251Z" fill="#FFD5E2"/>
<path d="M111.536 269L113.912 272.536L111.536 276.071L109.159 272.536L111.536 269Z" fill="#FFD5E2"/>
<path d="M143.536 295L145.912 298.536L143.536 302.071L141.159 298.536L143.536 295Z" fill="#FFD5E2"/>
<path d="M111.536 320L113.912 323.536L111.536 327.071L109.159 323.536L111.536 320Z" fill="#FFD5E2"/>
<path d="M126.536 363L128.912 366.536L126.536 370.071L124.159 366.536L126.536 363Z" fill="#FFD5E2"/>
<path d="M91.5355 359L93.9121 362.536L91.5355 366.071L89.1589 362.536L91.5355 359Z" fill="#FFD5E2"/>
<path d="M111.536 427L113.912 430.536L111.536 434.071L109.159 430.536L111.536 427Z" fill="#FFD5E2"/>
<path d="M185 441L187.377 444.536L185 448.071L182.623 444.536L185 441Z" fill="#FFD5E2"/>
<path d="M245.536 436L247.912 439.536L245.536 443.071L243.159 439.536L245.536 436Z" fill="#FFD5E2"/>
<path d="M200.536 388L202.912 391.536L200.536 395.071L198.159 391.536L200.536 388Z" fill="#FFD5E2"/>
<path d="M146.536 392L148.912 395.536L146.536 399.071L144.159 395.536L146.536 392Z" fill="#FFD5E2"/>
<path d="M239.536 349L241.912 352.536L239.536 356.071L237.159 352.536L239.536 349Z" fill="#FFD5E2"/>
<path d="M256.536 377L258.912 380.536L256.536 384.071L254.159 380.536L256.536 377Z" fill="#FFD5E2"/>
<path d="M276.536 333L278.912 336.536L276.536 340.071L274.159 336.536L276.536 333Z" fill="#FFD5E2"/>
<path d="M263.536 273L265.912 276.536L263.536 280.071L261.159 276.536L263.536 273Z" fill="#FFD5E2"/>
<path d="M226.536 295L228.912 298.536L226.536 302.071L224.159 298.536L226.536 295Z" fill="#FFD5E2"/>
</svg>
