<svg width="375" height="667" viewBox="0 0 375 667" fill="none" xmlns="http://www.w3.org/2000/svg">
<path id="Rectangle 67" d="M196.536 303L198.912 306.536L196.536 310.071L194.159 306.536L196.536 303Z" fill="#FFD5E2"/>
<path id="Rectangle 68" d="M203.536 278L205.912 281.536L203.536 285.071L201.159 281.536L203.536 278Z" fill="#FFD5E2"/>
<path id="Rectangle 69" d="M188.536 273L190.912 276.536L188.536 280.071L186.159 276.536L188.536 273Z" fill="#FFD5E2"/>
<path id="Rectangle 70" d="M178.536 277L180.912 280.536L178.536 284.071L176.159 280.536L178.536 277Z" fill="#FFD5E2"/>
<path id="Rectangle 71" d="M167.536 256L169.912 259.536L167.536 263.071L165.159 259.536L167.536 256Z" fill="#FFD5E2"/>
<path id="Rectangle 72" d="M184.536 243L186.912 246.536L184.536 250.071L182.159 246.536L184.536 243Z" fill="#FFD5E2"/>
<path id="Rectangle 73" d="M203.536 250L205.912 253.536L203.536 257.071L201.159 253.536L203.536 250Z" fill="#FFD5E2"/>
<path id="Rectangle 74" d="M150.536 273L152.912 276.536L150.536 280.071L148.159 276.536L150.536 273Z" fill="#FFD5E2"/>
<path id="Rectangle 76" d="M139.536 268L141.912 271.536L139.536 275.071L137.159 271.536L139.536 268Z" fill="#FFD5E2"/>
<path id="Rectangle 82" d="M132.536 296L134.912 299.536L132.536 303.071L130.159 299.536L132.536 296Z" fill="#FFD5E2"/>
<path id="Rectangle 83" d="M145.536 290L147.912 293.536L145.536 297.071L143.159 293.536L145.536 290Z" fill="#FFD5E2"/>
<path id="Rectangle 84" d="M150.536 301L152.912 304.536L150.536 308.071L148.159 304.536L150.536 301Z" fill="#FFD5E2"/>
<path id="Rectangle 85" d="M171.536 314L173.912 317.536L171.536 321.071L169.159 317.536L171.536 314Z" fill="#FFD5E2"/>
<path id="Rectangle 86" d="M149.536 317L151.912 320.536L149.536 324.071L147.159 320.536L149.536 317Z" fill="#FFD5E2"/>
<path id="Rectangle 141" d="M163.536 336L165.912 339.536L163.536 343.071L161.159 339.536L163.536 336Z" fill="#FFD5E2"/>
<path id="Rectangle 142" d="M184.536 340L186.912 343.536L184.536 347.071L182.159 343.536L184.536 340Z" fill="#FFD5E2"/>
<path id="Rectangle 143" d="M171.536 353L173.912 356.536L171.536 360.071L169.159 356.536L171.536 353Z" fill="#FFD5E2"/>
<path id="Rectangle 144" d="M139.536 357L141.912 360.536L139.536 364.071L137.159 360.536L139.536 357Z" fill="#FFD5E2"/>
<path id="Rectangle 87" d="M132.536 336L134.912 339.536L132.536 343.071L130.159 339.536L132.536 336Z" fill="#FFD5E2"/>
<path id="Rectangle 103" d="M209.536 366L211.912 369.536L209.536 373.071L207.159 369.536L209.536 366Z" fill="#FFD5E2"/>
<path id="Rectangle 106" d="M172.536 379L174.912 382.536L172.536 386.071L170.159 382.536L172.536 379Z" fill="#FFD5E2"/>
<path id="Rectangle 109" d="M240.536 357L242.912 360.536L240.536 364.071L238.159 360.536L240.536 357Z" fill="#FFD5E2"/>
<path id="Rectangle 110" d="M231.536 340L233.912 343.536L231.536 347.071L229.159 343.536L231.536 340Z" fill="#FFD5E2"/>
<path id="Rectangle 104" d="M209.536 336L211.912 339.536L209.536 343.071L207.159 339.536L209.536 336Z" fill="#FFD5E2"/>
<path id="Rectangle 105" d="M188.536 357L190.912 360.536L188.536 364.071L186.159 360.536L188.536 357Z" fill="#FFD5E2"/>
<path id="Rectangle 115" d="M150.536 372L152.912 375.536L150.536 379.071L148.159 375.536L150.536 372Z" fill="#FFD5E2"/>
<path id="Rectangle 119" d="M252.536 344L254.912 347.536L252.536 351.071L250.159 347.536L252.536 344Z" fill="#FFD5E2"/>
<path id="Rectangle 120" d="M247.536 336L249.912 339.536L247.536 343.071L245.159 339.536L247.536 336Z" fill="#FFD5E2"/>
<path id="Rectangle 121" d="M231.536 322L233.912 325.536L231.536 329.071L229.159 325.536L231.536 322Z" fill="#FFD5E2"/>
<path id="Rectangle 122" d="M215.536 310L217.912 313.536L215.536 317.071L213.159 313.536L215.536 310Z" fill="#FFD5E2"/>
<path id="Rectangle 123" d="M251.536 302L253.912 305.536L251.536 309.071L249.159 305.536L251.536 302Z" fill="#FFD5E2"/>
<path id="Rectangle 127" d="M235.536 289L237.912 292.536L235.536 296.071L233.159 292.536L235.536 289Z" fill="#FFD5E2"/>
<path id="Rectangle 128" d="M221.536 273L223.912 276.536L221.536 280.071L219.159 276.536L221.536 273Z" fill="#FFD5E2"/>
<path id="Rectangle 130" d="M241.536 279L243.912 282.536L241.536 286.071L239.159 282.536L241.536 279Z" fill="#FFD5E2"/>
<path id="Rectangle 118" d="M252.536 344L254.912 347.536L252.536 351.071L250.159 347.536L252.536 344Z" fill="#FFD5E2"/>
</svg>
