<svg width="375" height="667" viewBox="0 0 375 667" fill="none" xmlns="http://www.w3.org/2000/svg">
<path id="crystal-inner" d="M230.993 325L215 313M230.993 325L251.514 304.603M230.993 325L248 339.5M230.993 325V343.406M209.363 339.5L172 318.167M209.363 339.5L196 306.5M209.363 339.5L184.25 343.406M209.363 339.5L215 313M209.363 339.5L230.993 343.406M209.363 339.5L188.167 360.5M209.363 339.5L209.363 368.645M172 318.167L196 306.5M172 318.167L184.25 343.406M172 318.167L150.448 276M172 318.167L149 320.5M172 318.167L150.448 304.603M172 318.167L178.488 280.5M132.741 339.5L108 306.5L132.741 300.5M132.741 339.5L123 365.453L139.5 360.5M132.741 339.5V300.5M132.741 339.5L108 334.952M132.741 339.5L139.5 360.5M132.741 339.5L162.884 339.5M132.741 339.5L149 320.5M132.741 300.5L119.318 280.5L139.5 271M132.741 300.5L139.5 271M132.741 300.5L150.448 304.603M132.741 300.5L145 293M132.741 255.927L139.5 271M165.5 238.439L150.448 276M165.5 238.439L139.5 271M165.5 238.439L168 259.603M268 293L235.028 293M268 293L251.514 304.603M268 293L241 282.024M215 313L196 306.5M215 313L221.859 276M215 313L235.028 293M215 313L203 282.024M203 253L221.859 238.439L221.859 276M203 253L196 232.5L184.25 245.5M203 253L184.25 245.5M203 253L221.859 276M203 253L188.167 276M203 253L203 282.024M196 306.5L178.488 280.5M196 306.5L188.167 276M196 306.5L203 282.024M221.859 400.377L209.363 368.645M139.5 387.5L150.448 375M209.363 368.645L241 360.5M209.363 368.645L184.25 406.5L172 382.5M209.363 368.645L172 382.5M209.363 368.645L241 387.5V360.5M209.363 368.645L188.167 360.5M241 360.5L230.993 343.406M241 360.5L259.488 365.453L253.102 348.063M241 360.5L253.102 348.063M184.25 343.406L172 356.026M184.25 343.406L162.884 339.5M184.25 343.406L188.167 360.5M184.25 245.5L168 259.603M184.25 245.5L188.167 276M150.448 276L139.5 271M150.448 276L145 293M150.448 276L178.488 280.5M150.448 276L168 259.603M172 382.5L150.448 375M172 382.5L172 356.026M172 382.5L188.167 360.5M150.448 375L172 356.026M150.448 375L139.5 360.5M221.859 276L248 259.603L241 282.024M221.859 276L235.028 293M221.859 276L241 282.024M221.859 276L203 282.024M230.993 343.406L248 339.5M235.028 293L251.514 304.603M235.028 293L241 282.024M172 356.026L162.884 339.5M139.5 360.5L162.884 339.5M162.884 339.5L149 320.5M149 320.5L150.448 304.603M150.448 304.603L145 293M251.514 304.603L248 339.5M248 339.5L272 325L253.102 348.063M248 339.5L253.102 348.063M253.102 348.063H268M168 259.603L178.488 280.5M178.488 280.5L188.167 276M188.167 276L203 282.024" stroke="#FFD5E2"/>
</svg>
