<svg width="375" height="667" viewBox="0 0 375 667" fill="none" xmlns="http://www.w3.org/2000/svg">
<path d="M236.5 234.5L264 277.5M236.5 234.5L207 269M236.5 234.5L185 223.5M236.5 234.5L217 170.5M236.5 234.5L294.5 223.5M236.5 234.5L260.5 193M264 277.5L227 298M264 277.5L277.5 336.5M264 277.5H314.5M264 277.5L294.5 223.5M257 381L245.5 439.5M257 381L239.5 352M257 381L277.5 336.5M257 381L285 460M257 381L324 388M245.5 439.5L202 392.5M245.5 439.5L185 444.5M245.5 439.5L207 489M245.5 439.5L248 477.5M245.5 439.5L285 460M111 431L91.5 362.5M111 431L146.5 395M111 431L185 444.5M111 431L96 474.5M111 431H71.5M111 431L160.5 493M91.5 362.5L126 367.5M91.5 362.5L111 323M91.5 362.5L51.5 355.5M91.5 362.5L51.5 401.5M91.5 362.5L71.5 431M111 272L143.5 244.5M111 272L143.5 298M111 272V323M111 272L82.5 228M111 272H56.5M143.5 244.5L171 255M143.5 244.5L185 223.5M143.5 244.5L122 175.5M143.5 244.5L96 197.5M143.5 244.5L82.5 228M171 255L143.5 298M171 255L207 269M171 255L185 223.5M171 255L163.5 317M171 255L192 305.5M143.5 298L126 367.5M143.5 298L163.5 317M143.5 298L111 323M126 367.5L146.5 395M126 367.5L163.5 317M126 367.5L175 352M126 367.5L111 323M146.5 395L202 392.5M146.5 395L175 352M146.5 395L185 444.5M202 392.5L239.5 352M202 392.5L175 352M202 392.5L185 444.5M202 392.5L207 339.5M239.5 352L227 298M239.5 352L207 339.5M239.5 352L277.5 336.5M227 298L207 269M227 298L207 339.5M227 298L192 305.5M227 298L277.5 336.5M207 269L192 305.5M207 269L185 223.5M207 339.5L175 352M207 339.5L163.5 317M207 339.5L192 305.5M175 352L163.5 317M163.5 317L192 305.5M277.5 336.5L321.5 348M277.5 336.5L310.5 305.5M185 223.5L217 170.5M185 223.5L163.5 166M111 323L56.5 312M185 444.5L160.5 493M217 170.5L260.5 193M217 170.5L163.5 166M163.5 166L122 175.5M122 175.5L96 197.5M96 197.5L82.5 228M82.5 228L56.5 272M56.5 272V312M56.5 312L51.5 355.5M51.5 355.5V401.5M51.5 401.5L71.5 431M71.5 431L96 474.5M96 474.5L160.5 493M160.5 493L207 489M207 489L248 477.5M248 477.5L285 460M285 460L324 388M324 388L321.5 348M321.5 348L310.5 305.5M310.5 305.5L314.5 277.5M314.5 277.5L294.5 223.5M294.5 223.5L260.5 193" stroke="#FFD5E2"/>
</svg>
