<svg width="375" height="667" viewBox="0 0 375 667" fill="none" xmlns="http://www.w3.org/2000/svg">
<g id="new-loading-animation">
<rect width="375" height="667" fill="white"/>
<path id="crystal-outer" d="M297.48 317.018L278.975 308.901L279.617 290.445L297.48 317.018ZM297.323 318.041L272.839 324.271L278.732 309.887L297.323 318.041ZM278.646 289.612L277.967 309.116L272.26 323.047L268.545 293.332L278.646 289.612ZM268.636 347.322L272.245 326.513L281.168 343.121L268.636 347.322ZM268.357 348.47L280.654 344.348L264.772 367.975L260.141 365.257L268.357 348.47ZM259.599 366.098L264.213 368.807L252.68 385.963L242.16 386.895L259.599 366.098ZM241.5 387.958L251.963 387.031L241.5 402.596L241.5 387.958ZM240.5 388.439V404.083L231.063 418.123L222.5 400.549L240.5 388.439ZM221.791 401.377L230.294 418.829L204.233 427.56L221.791 401.377ZM202.264 429.457L197.976 447.843L179.729 441.408L202.264 429.457ZM202.215 428.35L179.145 440.585L184.568 407.644L202.215 428.35ZM140.914 388.643L182.453 406.28L156.23 410.457L140.914 388.643ZM155.56 411.349L161.898 442.857L134.144 401.567L155.56 411.349ZM154.533 409.78L133.429 400.142L139.562 388.458L154.533 409.78ZM122.804 366.026L138.911 387.547L132.688 399.402L112.213 368.942L122.804 366.026ZM121.828 365.257L111.625 368.067L99.4446 349.947L121.828 365.257ZM121.711 363.966L98.3013 347.953L107.9 335.881L121.711 363.966ZM107.5 307.226L107.5 334.106L78.6665 318.249L107.5 307.226ZM107.276 306.241L78.7753 317.137L97.5413 289.22L107.276 306.241ZM107.939 305.387L98.3059 288.542L118.398 281.36L107.939 305.387ZM132.229 255.822L119.818 278.542L119.818 256.08L130.708 239.879L132.229 255.822ZM133.036 253.755L131.588 238.57L148.412 213.541L133.036 253.755ZM133.686 254.856L150.519 210.831L164.827 238.232L133.686 254.856ZM195.237 232.139L166.179 237.798L176.452 197.365L195.237 232.139ZM186.849 156.36L175.859 195.658L151.97 208.248L186.849 156.36ZM165.338 237.048L151.122 209.825L175.521 196.966L165.338 237.048ZM176.865 195.774L188.178 155.321L205.153 213.384L176.865 195.774ZM196.76 232.162L206.038 215.462L220.751 237.672L196.76 232.162ZM205.332 214.673L196.006 231.459L177.618 197.42L205.332 214.673ZM195.991 233.011L221.635 238.901L247.617 259.936L267.517 293.167L271.495 324.988L267.52 347.907L259.066 365.179L240.662 387.125L221.671 399.901L184.312 405.983L139.82 387.092L123.428 365.191L108.5 334.836L108.5 306.604L119.767 280.72L133.108 256.298L165.669 238.916L195.991 233.011ZM185.206 406.851L220.802 401.056L202.952 427.673L185.206 406.851ZM278.401 288.636L268.216 292.388L248.882 260.103L259.222 260.103L278.401 288.636ZM258.549 259.103L248.177 259.103L224.557 239.98L252.776 250.515L258.549 259.103ZM221.912 237.614L207.18 215.376L234.145 223.472L221.912 237.614ZM222.708 238.222L234.978 224.037L251.819 249.09L222.708 238.222ZM229.758 420.063L217.802 437.85L199.069 447.557L203.424 428.885L229.758 420.063ZM189.574 479.843L198.755 448.846L216.64 439.578L189.574 479.843ZM197.722 448.814L188.224 480.881L179.183 442.275L197.722 448.814ZM178.116 442.103L187.057 480.285L163.701 445.538L178.116 442.103ZM177.637 441.189L163.272 444.612L156.934 413.11L177.637 441.189ZM178.187 440.249L156.89 411.365L183.644 407.103L178.187 440.249ZM97.6094 347.217L79.0445 319.598L107.24 335.105L97.6094 347.217ZM98.8384 287.29L118.818 257.567L118.818 280.148L98.8384 287.29ZM206.404 214.099L189.553 156.46L233.834 222.334L206.404 214.099ZM297.71 318.975L281.937 342.439L272.743 325.327L297.71 318.975Z" stroke="#FFD5E2"/>
</g>
</svg>
