<svg width="375" height="667" viewBox="0 0 375 667" fill="none" xmlns="http://www.w3.org/2000/svg">
<g id="new-loading-animation">
<rect width="375" height="667" fill="white"/>
<path id="background-outer" fill-rule="evenodd" clip-rule="evenodd" d="M375 0H0V667H375V0ZM132.741 255.927L165.5 238.439L196 232.5L221.86 238.439L248 259.603L268 293L272 325L268 348.063L259.488 365.453L241 387.5L221.86 400.377L184.25 406.5L139.5 387.5L123 365.453L108 334.952V306.5L119.318 280.5L132.741 255.927Z" fill="#212421"/>
<path id="background-inner" d="M165.5 238.439L132.741 255.927L119.318 280.5L108 306.5V334.952L123 365.453L139.5 387.5L184.25 406.5L221.86 400.377L241 387.5L259.488 365.453L268 348.063L272 325L268 293L248 259.603L221.86 238.439L196 232.5L165.5 238.439Z" fill="#212421"/>
<g id="crystal-full">
<mask id="path-3-inside-1" fill="white">
<path d="M77.4802 318.167L97.5756 288.272L119.318 255.927L131.073 238.439L150.449 209.615L188.167 153.502L235.028 223.215L253.102 250.103L259.488 259.603L279.171 288.885L298.855 318.167L281.889 343.406L264.924 368.645L252.962 386.44L241 404.236L230.993 419.122L218.146 438.235L188.167 482.833L162.884 445.219L132.741 400.377L111.411 368.645L97.5756 348.063L77.4802 318.167Z"/>
</mask>
<path d="M298.855 318.167L298.978 318.652L300.387 318.294L299.056 317.71L298.855 318.167ZM77.4802 318.167L77.3016 317.7L76.2939 318.086L77.2392 318.606L77.4802 318.167ZM97.5756 288.272L97.4073 287.802L96.8452 288.002L97.1416 288.521L97.5756 288.272ZM150.449 209.615L150.215 209.173L150.049 209.261L149.982 209.437L150.449 209.615ZM188.167 153.502L188.647 153.362L188.157 151.684L187.686 153.368L188.167 153.502ZM235.028 223.215L235.406 223.542L235.911 222.958L235.172 222.736L235.028 223.215ZM279.171 288.885L279.671 288.903L279.697 288.159L278.999 288.416L279.171 288.885ZM188.167 482.833L187.681 482.947L188.111 484.784L188.647 482.975L188.167 482.833ZM162.884 445.219L162.393 445.317L162.496 445.825L163 445.705L162.884 445.219ZM230.993 419.122L231.152 419.596L231.692 419.415L231.443 418.903L230.993 419.122ZM132.741 400.377L132.298 400.145L132.053 400.612L132.533 400.832L132.741 400.377ZM281.889 343.406L282.048 343.88L282.61 343.692L282.33 343.169L281.889 343.406ZM97.5756 348.063L97.1842 347.751L96.8498 348.172L97.2933 348.475L97.5756 348.063ZM299.056 317.71L278.664 308.765L278.262 309.681L298.654 318.625L299.056 317.71ZM278 309.033L271.537 324.81L272.463 325.19L278.926 309.413L278 309.033ZM209.611 339.066L172.248 317.733L171.752 318.602L209.115 339.934L209.611 339.066ZM133.141 339.2L108.4 306.2L107.6 306.8L132.341 339.8L133.141 339.2ZM107.821 306.033L77.3016 317.7L77.6587 318.634L108.179 306.967L107.821 306.033ZM108.118 306.986L132.859 300.986L132.623 300.014L107.882 306.014L108.118 306.986ZM133.156 300.221L119.733 280.221L118.903 280.779L132.326 300.779L133.156 300.221ZM119.149 280.029L97.4073 287.802L97.7439 288.743L119.486 280.971L119.149 280.029ZM119.818 280.5L119.818 255.927L118.818 255.927L118.818 280.5L119.818 280.5ZM132.977 256.368L165.735 238.88L165.265 237.998L132.506 255.486L132.977 256.368ZM133.208 256.106L150.916 209.794L149.982 209.437L132.274 255.749L133.208 256.106ZM176.049 195.558L150.215 209.173L150.682 210.058L176.516 196.442L176.049 195.558ZM176.764 196.135L188.649 153.637L187.686 153.368L175.801 195.865L176.764 196.135ZM187.688 153.643L205.52 214.64L206.48 214.36L188.647 153.362L187.688 153.643ZM206.264 214.076L176.547 195.576L176.018 196.424L205.736 214.924L206.264 214.076ZM175.843 196.238L195.56 232.738L196.44 232.262L176.722 195.762L175.843 196.238ZM196.437 232.743L206.437 214.743L205.563 214.257L195.563 232.257L196.437 232.743ZM205.856 214.979L234.884 223.694L235.172 222.736L206.144 214.021L205.856 214.979ZM222.238 238.766L235.406 223.542L234.65 222.888L221.481 238.112L222.238 238.766ZM221.685 238.908L252.927 250.571L253.277 249.634L222.034 237.971L221.685 238.908ZM278.999 288.416L267.827 292.531L268.173 293.469L279.344 289.354L278.999 288.416ZM278.672 288.868L277.963 309.206L278.963 309.24L279.671 288.903L278.672 288.868ZM267.504 293.062L271.504 325.062L272.496 324.938L268.496 292.938L267.504 293.062ZM231.293 324.6L215.3 312.6L214.7 313.4L230.693 325.4L231.293 324.6ZM203.306 253.396L222.165 238.835L221.554 238.044L202.694 252.604L203.306 253.396ZM221.971 237.952L196.112 232.013L195.888 232.987L221.748 238.927L221.971 237.952ZM195.904 232.009L165.404 237.948L165.596 238.93L196.096 232.991L195.904 232.009ZM133.239 255.88L131.571 238.392L130.575 238.487L132.243 255.975L133.239 255.88ZM132.302 255.688L118.879 280.26L119.757 280.74L133.18 256.167L132.302 255.688ZM118.859 280.3L107.542 306.3L108.458 306.7L119.776 280.7L118.859 280.3ZM172.219 318.617L196.219 306.95L195.781 306.05L171.781 317.718L172.219 318.617ZM215.162 312.527L196.162 306.027L195.838 306.973L214.838 313.473L215.162 312.527ZM209.826 339.312L196.463 306.312L195.537 306.688L208.899 339.688L209.826 339.312ZM197.857 448.358L187.688 482.691L188.647 482.975L198.815 448.642L197.857 448.358ZM198.566 448.944L218.376 438.679L217.916 437.791L198.106 448.056L198.566 448.944ZM231.443 418.903L222.309 400.158L221.41 400.596L230.544 419.341L231.443 418.903ZM221.444 400.098L202.585 428.222L203.415 428.778L222.275 400.655L221.444 400.098ZM202.513 428.386L197.849 448.386L198.823 448.614L203.487 428.614L202.513 428.386ZM155.51 411.099L162.393 445.317L163.374 445.12L156.49 410.901L155.51 411.099ZM156.208 410.545L132.949 399.922L132.533 400.832L155.792 411.455L156.208 410.545ZM133.184 400.609L139.943 387.732L139.057 387.268L132.298 400.145L133.184 400.609ZM139.091 387.787L155.591 411.287L156.409 410.713L139.909 387.213L139.091 387.787ZM208.897 368.828L221.394 400.56L222.325 400.194L209.828 368.462L208.897 368.828ZM209.487 369.129L241.125 360.984L240.875 360.016L209.238 368.161L209.487 369.129ZM240.5 360.5V387.5H241.5V360.5H240.5ZM240.721 387.085L221.58 399.962L222.139 400.792L241.279 387.915L240.721 387.085ZM271.56 325.237L281.449 343.643L282.33 343.169L272.44 324.763L271.56 325.237ZM123.468 365.629L133.209 339.676L132.273 339.324L122.532 365.277L123.468 365.629ZM184.7 343.188L172.45 317.949L171.55 318.386L183.8 343.624L184.7 343.188ZM184.327 343.9L209.439 339.994L209.286 339.006L184.173 342.912L184.327 343.9ZM122.867 364.971L111.278 368.163L111.544 369.127L123.133 365.935L122.867 364.971ZM123.282 365.04L97.8579 347.65L97.2933 348.475L122.718 365.866L123.282 365.04ZM108.434 306.252L98.0096 288.024L97.1416 288.521L107.566 306.748L108.434 306.252ZM195.527 232.662L202.527 253.162L203.473 252.838L196.473 232.338L195.527 232.662ZM214.511 312.896L208.874 339.396L209.852 339.604L215.489 313.104L214.511 312.896ZM163 445.705L178.604 441.986L178.372 441.014L162.768 444.732L163 445.705ZM178.322 441.972L198.17 448.972L198.502 448.028L178.654 441.028L178.322 441.972ZM188.654 482.719L178.975 441.386L178.001 441.614L187.681 482.947L188.654 482.719ZM155.598 411.297L178.085 441.797L178.89 441.203L156.402 410.703L155.598 411.297ZM133.241 339.5V300.5H132.241V339.5H133.241ZM165.985 238.562L176.767 196.123L175.798 195.877L165.015 238.316L165.985 238.562ZM205.583 214.776L221.443 238.715L222.276 238.163L206.417 214.224L205.583 214.776ZM139.9 387.2L123.4 365.153L122.6 365.753L139.1 387.8L139.9 387.2ZM203.186 252.536L184.436 245.036L184.064 245.964L202.814 253.464L203.186 252.536ZM165.036 238.253L149.984 275.814L150.913 276.186L165.964 238.625L165.036 238.253ZM150.003 276.228L171.555 318.395L172.445 317.94L150.894 275.772L150.003 276.228ZM165.109 238.127L139.109 270.688L139.891 271.312L165.891 238.751L165.109 238.127ZM139.013 270.888L132.254 300.388L133.228 300.612L139.987 271.112L139.013 270.888ZM150.656 275.545L139.708 270.545L139.292 271.455L150.241 276.455L150.656 275.545ZM132.285 256.132L139.044 271.205L139.956 270.795L133.197 255.723L132.285 256.132ZM156.079 411.494L184.329 406.994L184.171 406.006L155.921 410.506L156.079 411.494ZM183.869 406.824L202.619 428.824L203.381 428.176L184.631 406.176L183.869 406.824ZM184.667 406.776L209.779 368.921L208.946 368.368L183.833 406.224L184.667 406.776ZM184.445 406.04L139.695 387.04L139.305 387.96L184.055 406.96L184.445 406.04ZM172.174 382.969L209.536 369.114L209.189 368.176L171.826 382.031L172.174 382.969ZM171.555 382.727L183.805 406.727L184.695 406.273L172.445 382.273L171.555 382.727ZM150.072 374.671L139.124 387.171L139.876 387.829L150.825 375.329L150.072 374.671ZM172.164 382.028L150.613 374.528L150.284 375.472L171.836 382.972L172.164 382.028ZM195.629 232.165L183.879 245.165L184.621 245.835L196.371 232.835L195.629 232.165ZM222.36 276L222.36 238.439L221.36 238.439L221.36 276L222.36 276ZM222.246 275.683L203.387 252.683L202.613 253.317L221.473 276.317L222.246 275.683ZM241.432 360.247L231.425 343.154L230.562 343.659L240.569 360.753L241.432 360.247ZM231.082 342.914L209.451 339.008L209.274 339.992L230.904 343.898L231.082 342.914ZM241.256 387.07L209.619 368.215L209.107 369.074L240.744 387.93L241.256 387.07ZM230.834 418.648L202.841 428.026L203.159 428.974L231.152 419.596L230.834 418.648ZM184.33 406.994L221.94 400.87L221.779 399.883L184.17 406.006L184.33 406.994ZM221.545 238.828L247.685 259.992L248.315 259.214L222.174 238.051L221.545 238.828ZM247.571 259.86L267.571 293.257L268.429 292.743L248.429 259.346L247.571 259.86ZM248 260.103L259.488 260.103L259.488 259.103L248 259.103L248 260.103ZM221.368 275.909L214.508 312.909L215.492 313.091L222.351 276.091L221.368 275.909ZM265.177 368.214L259.741 365.022L259.235 365.884L264.671 369.076L265.177 368.214ZM241.383 387.821L259.871 365.774L259.105 365.132L240.617 387.179L241.383 387.821ZM259.617 364.97L241.129 360.017L240.871 360.983L259.359 365.936L259.617 364.97ZM107.5 306.5L107.5 334.952L108.5 334.952L108.5 306.5L107.5 306.5ZM107.609 334.641L97.1842 347.751L97.967 348.374L108.391 335.263L107.609 334.641ZM123.449 365.232L108.449 334.731L107.551 335.173L122.551 365.674L123.449 365.232ZM132.831 339.008L108.09 334.46L107.91 335.444L132.651 339.992L132.831 339.008ZM247.734 259.179L221.594 275.576L222.125 276.424L248.266 260.027L247.734 259.179ZM215.353 313.354L235.381 293.354L234.675 292.646L214.647 312.646L215.353 313.354ZM235.028 293.5L268 293.5L268 292.5L235.028 292.5L235.028 293.5ZM235.423 292.694L222.255 275.694L221.464 276.306L234.633 293.306L235.423 292.694ZM150.005 209.847L165.057 238.671L165.943 238.208L150.892 209.384L150.005 209.847ZM183.891 343.058L171.641 355.677L172.359 356.374L184.609 343.754L183.891 343.058ZM171.67 355.65L150.118 374.625L150.779 375.375L172.33 356.401L171.67 355.65ZM171.5 356.025V382.5H172.5V356.025H171.5ZM132.265 339.653L139.024 360.653L139.976 360.347L133.217 339.347L132.265 339.653ZM139.101 360.801L150.05 375.301L150.848 374.699L139.899 360.199L139.101 360.801ZM132.741 340L162.884 340L162.884 339L132.741 339L132.741 340ZM162.794 339.992L184.16 343.898L184.34 342.914L162.974 339.008L162.794 339.992ZM171.95 317.67L148.95 320.003L149.05 320.997L172.05 318.665L171.95 317.67ZM148.62 320.175L132.361 339.175L133.121 339.825L149.38 320.825L148.62 320.175ZM163.287 339.205L149.404 320.205L148.596 320.795L162.48 339.795L163.287 339.205ZM183.763 343.518L187.68 360.612L188.655 360.388L184.737 343.294L183.763 343.518ZM187.988 360.967L209.183 369.112L209.542 368.178L188.347 360.033L187.988 360.967ZM132.628 300.987L150.336 305.09L150.561 304.116L132.854 300.013L132.628 300.987ZM150.182 305.026L171.734 318.591L172.266 317.744L150.715 304.18L150.182 305.026ZM133.002 300.927L145.261 293.427L144.739 292.573L132.48 300.073L133.002 300.927ZM145.476 293.153L150.925 276.153L149.972 275.847L144.524 292.847L145.476 293.153ZM150.901 304.391L145.453 292.787L144.547 293.213L149.996 304.816L150.901 304.391ZM149.951 304.558L148.502 320.455L149.498 320.545L150.946 304.649L149.951 304.558ZM231.346 325.355L251.866 304.958L251.162 304.249L230.641 324.645L231.346 325.355ZM251.802 305.012L268.288 293.409L267.712 292.591L251.226 304.194L251.802 305.012ZM234.74 293.409L251.226 305.012L251.802 304.194L235.316 292.591L234.74 293.409ZM271.741 324.572L247.741 339.072L248.259 339.928L272.259 325.428L271.741 324.572ZM248.324 339.12L231.318 324.62L230.669 325.38L247.676 339.88L248.324 339.12ZM248.497 339.55L252.011 304.653L251.017 304.553L247.503 339.45L248.497 339.55ZM209.011 339.145L187.816 360.145L188.519 360.855L209.715 339.855L209.011 339.145ZM271.613 324.683L252.715 347.746L253.489 348.379L272.387 325.317L271.613 324.683ZM252.743 347.714L240.642 360.151L241.358 360.849L253.46 348.411L252.743 347.714ZM247.57 339.756L252.672 348.318L253.531 347.807L248.43 339.244L247.57 339.756ZM252.632 348.235L259.019 365.625L259.957 365.281L253.571 347.89L252.632 348.235ZM119.531 280.952L139.713 271.452L139.287 270.548L119.105 280.048L119.531 280.952ZM268.188 292.537L241.188 281.561L240.812 282.487L267.812 293.463L268.188 292.537ZM241.15 281.547L222.01 275.523L221.709 276.477L240.85 282.501L241.15 281.547ZM247.523 259.454L240.523 281.875L241.477 282.173L248.477 259.752L247.523 259.454ZM235.467 293.239L241.439 282.263L240.561 281.785L234.589 292.761L235.467 293.239ZM183.922 245.122L167.672 259.225L168.328 259.981L184.578 245.878L183.922 245.122ZM168.497 259.544L165.997 238.381L165.003 238.498L167.503 259.662L168.497 259.544ZM167.553 259.827L178.041 280.724L178.935 280.276L168.447 259.379L167.553 259.827ZM178.073 280.779L195.585 306.779L196.415 306.221L178.903 280.221L178.073 280.779ZM178.567 280.006L150.528 275.506L150.369 276.494L178.409 280.994L178.567 280.006ZM196.484 306.376L188.652 275.876L187.683 276.124L195.516 306.624L196.484 306.376ZM188.588 276.271L203.42 253.271L202.58 252.729L187.747 275.729L188.588 276.271ZM178.699 280.953L188.378 276.453L187.957 275.547L178.277 280.047L178.699 280.953ZM215.466 312.819L203.466 281.843L202.534 282.204L214.534 313.181L215.466 312.819ZM203.5 282.024L203.5 253L202.5 253L202.5 282.024L203.5 282.024ZM203.188 281.561L188.356 275.537L187.979 276.463L202.812 282.487L203.188 281.561ZM203.152 282.5L222.012 276.476L221.707 275.524L202.848 281.548L203.152 282.5ZM188.663 275.936L184.746 245.436L183.754 245.564L187.672 276.064L188.663 275.936ZM167.659 259.238L150.107 275.635L150.79 276.365L168.341 259.968L167.659 259.238ZM177.995 280.415L171.507 318.083L172.493 318.252L178.981 280.585L177.995 280.415ZM202.519 281.886L195.519 306.363L196.481 306.637L203.481 282.161L202.519 281.886ZM77.2392 318.606L107.759 335.39L108.241 334.514L77.7211 317.729L77.2392 318.606ZM272.123 325.485L298.978 318.652L298.731 317.683L271.877 324.515L272.123 325.485ZM123.144 365.932L139.644 360.979L139.356 360.021L122.856 364.974L123.144 365.932ZM183.757 406.419L177.995 441.419L178.981 441.581L184.743 406.581L183.757 406.419ZM202.766 428.058L178.254 441.058L178.722 441.942L203.234 428.942L202.766 428.058ZM240.5 387.5V404.236H241.5V387.5H240.5ZM231.105 343.893L248.112 339.987L247.888 339.013L230.881 342.919L231.105 343.893ZM230.493 325V343.406H231.493V325H230.493ZM208.863 339.5L208.863 368.645L209.863 368.645L209.863 339.5L208.863 339.5ZM187.765 360.204L171.597 382.204L172.403 382.796L188.57 360.796L187.765 360.204ZM139.834 360.872L163.218 339.872L162.55 339.128L139.166 360.128L139.834 360.872ZM172.438 355.784L163.321 339.258L162.446 339.742L171.562 356.267L172.438 355.784ZM241.044 387.998L253.006 386.938L252.918 385.942L240.956 387.002L241.044 387.998ZM259.937 365.673L268.449 348.282L267.551 347.843L259.039 365.233L259.937 365.673ZM268.493 348.148L272.493 325.085L271.507 324.915L267.507 347.977L268.493 348.148ZM281.73 342.932L267.841 347.589L268.159 348.537L282.048 343.88L281.73 342.932ZM298.855 318.167L299.685 318.725L300.06 318.167L299.685 317.61L298.855 318.167ZM77.4802 318.167L76.6503 317.61L76.2753 318.167L76.6503 318.725L77.4802 318.167ZM97.5756 288.272L96.7457 287.714L96.7457 287.714L97.5756 288.272ZM119.318 255.927L118.488 255.37L118.488 255.37L119.318 255.927ZM150.449 209.615L149.619 209.057L149.619 209.057L150.449 209.615ZM188.167 153.502L188.997 152.945L188.167 151.71L187.338 152.945L188.167 153.502ZM235.028 223.215L235.858 222.657L235.858 222.657L235.028 223.215ZM253.102 250.103L252.272 250.66L252.272 250.66L253.102 250.103ZM259.488 259.603L260.318 259.045L260.318 259.045L259.488 259.603ZM279.171 288.885L280.001 288.327L280.001 288.327L279.171 288.885ZM131.073 238.439L131.903 238.997L131.903 238.997L131.073 238.439ZM188.167 482.833L187.338 483.39L188.167 484.625L188.997 483.39L188.167 482.833ZM162.884 445.219L162.054 445.777L162.054 445.777L162.884 445.219ZM218.146 438.235L217.316 437.677L217.316 437.677L218.146 438.235ZM230.993 419.122L231.823 419.68L231.823 419.68L230.993 419.122ZM132.741 400.377L131.911 400.935L131.911 400.935L132.741 400.377ZM264.924 368.645L264.094 368.087L264.094 368.087L264.924 368.645ZM111.411 368.645L112.241 368.087L112.241 368.087L111.411 368.645ZM97.5756 348.063L96.7457 348.62L96.7457 348.62L97.5756 348.063ZM241 404.236L241.83 404.794L241.83 404.794L241 404.236ZM252.962 386.44L253.792 386.998L253.792 386.998L252.962 386.44ZM78.3101 318.725L98.4055 288.83L96.7457 287.714L76.6503 317.61L78.3101 318.725ZM98.4055 288.83L120.148 256.485L118.488 255.37L96.7457 287.714L98.4055 288.83ZM151.278 210.173L188.997 154.06L187.338 152.945L149.619 209.057L151.278 210.173ZM187.338 154.06L234.198 223.773L235.858 222.657L188.997 152.945L187.338 154.06ZM234.198 223.773L252.272 250.66L253.932 249.545L235.858 222.657L234.198 223.773ZM252.272 250.66L258.658 260.161L260.318 259.045L253.932 249.545L252.272 250.66ZM258.658 260.161L278.341 289.443L280.001 288.327L260.318 259.045L258.658 260.161ZM278.341 289.443L298.025 318.725L299.685 317.61L280.001 288.327L278.341 289.443ZM120.148 256.485L131.903 238.997L130.243 237.881L118.488 255.37L120.148 256.485ZM131.903 238.997L151.278 210.173L149.619 209.057L130.243 237.881L131.903 238.997ZM188.997 482.275L163.714 444.661L162.054 445.777L187.338 483.39L188.997 482.275ZM217.316 437.677L187.338 482.275L188.997 483.39L218.976 438.793L217.316 437.677ZM230.163 418.564L217.316 437.677L218.976 438.793L231.823 419.68L230.163 418.564ZM163.714 444.661L133.571 399.819L131.911 400.935L162.054 445.777L163.714 444.661ZM281.059 342.848L264.094 368.087L265.754 369.203L282.719 343.964L281.059 342.848ZM133.571 399.819L112.241 368.087L110.581 369.203L131.911 400.935L133.571 399.819ZM112.241 368.087L98.4055 347.505L96.7457 348.62L110.581 369.203L112.241 368.087ZM98.4055 347.505L78.3101 317.61L76.6503 318.725L96.7457 348.62L98.4055 347.505ZM282.719 343.964L299.685 318.725L298.025 317.61L281.059 342.848L282.719 343.964ZM240.17 403.678L230.163 418.564L231.823 419.68L241.83 404.794L240.17 403.678ZM264.094 368.087L252.132 385.882L253.792 386.998L265.754 369.203L264.094 368.087ZM252.132 385.882L240.17 403.678L241.83 404.794L253.792 386.998L252.132 385.882Z" fill="#FFD5E2" mask="url(#path-3-inside-1)"/>
</g>
<path id="crystal-outer" d="M297.48 317.018L278.975 308.901L279.617 290.445L297.48 317.018ZM297.323 318.041L272.839 324.271L278.732 309.887L297.323 318.041ZM278.646 289.612L277.967 309.116L272.26 323.047L268.545 293.332L278.646 289.612ZM268.636 347.322L272.245 326.513L281.168 343.121L268.636 347.322ZM268.357 348.47L280.654 344.348L264.772 367.975L260.141 365.257L268.357 348.47ZM259.599 366.098L264.213 368.807L252.68 385.963L242.16 386.895L259.599 366.098ZM241.5 387.958L251.963 387.031L241.5 402.596L241.5 387.958ZM240.5 388.439V404.083L231.063 418.123L222.5 400.549L240.5 388.439ZM221.791 401.377L230.294 418.829L204.233 427.56L221.791 401.377ZM202.264 429.457L197.976 447.843L179.729 441.408L202.264 429.457ZM202.215 428.35L179.145 440.585L184.568 407.644L202.215 428.35ZM140.914 388.643L182.453 406.28L156.23 410.457L140.914 388.643ZM155.56 411.349L161.898 442.857L134.144 401.567L155.56 411.349ZM154.533 409.78L133.429 400.142L139.562 388.458L154.533 409.78ZM122.804 366.026L138.911 387.547L132.688 399.402L112.213 368.942L122.804 366.026ZM121.828 365.257L111.625 368.067L99.4446 349.947L121.828 365.257ZM121.711 363.966L98.3013 347.953L107.9 335.881L121.711 363.966ZM107.5 307.226L107.5 334.106L78.6665 318.249L107.5 307.226ZM107.276 306.241L78.7753 317.137L97.5413 289.22L107.276 306.241ZM107.939 305.387L98.3059 288.542L118.398 281.36L107.939 305.387ZM132.229 255.822L119.818 278.542L119.818 256.08L130.708 239.879L132.229 255.822ZM133.036 253.755L131.588 238.57L148.412 213.541L133.036 253.755ZM133.686 254.856L150.519 210.831L164.827 238.232L133.686 254.856ZM195.237 232.139L166.179 237.798L176.452 197.365L195.237 232.139ZM186.849 156.36L175.859 195.658L151.97 208.248L186.849 156.36ZM165.338 237.048L151.122 209.825L175.521 196.966L165.338 237.048ZM176.865 195.774L188.178 155.321L205.153 213.384L176.865 195.774ZM196.76 232.162L206.038 215.462L220.751 237.672L196.76 232.162ZM205.332 214.673L196.006 231.459L177.618 197.42L205.332 214.673ZM195.991 233.011L221.635 238.901L247.617 259.936L267.517 293.167L271.495 324.988L267.52 347.907L259.066 365.179L240.662 387.125L221.671 399.901L184.312 405.983L139.82 387.092L123.428 365.191L108.5 334.836L108.5 306.604L119.767 280.72L133.108 256.298L165.669 238.916L195.991 233.011ZM185.206 406.851L220.802 401.056L202.952 427.673L185.206 406.851ZM278.401 288.636L268.216 292.388L248.882 260.103L259.222 260.103L278.401 288.636ZM258.549 259.103L248.177 259.103L224.557 239.98L252.776 250.515L258.549 259.103ZM221.912 237.614L207.18 215.376L234.145 223.472L221.912 237.614ZM222.708 238.222L234.978 224.037L251.819 249.09L222.708 238.222ZM229.758 420.063L217.802 437.85L199.069 447.557L203.424 428.885L229.758 420.063ZM189.574 479.843L198.755 448.846L216.64 439.578L189.574 479.843ZM197.722 448.814L188.224 480.881L179.183 442.275L197.722 448.814ZM178.116 442.103L187.057 480.285L163.701 445.538L178.116 442.103ZM177.637 441.189L163.272 444.612L156.934 413.11L177.637 441.189ZM178.187 440.249L156.89 411.365L183.644 407.103L178.187 440.249ZM97.6094 347.217L79.0445 319.598L107.24 335.105L97.6094 347.217ZM98.8384 287.29L118.818 257.567L118.818 280.148L98.8384 287.29ZM206.404 214.099L189.553 156.46L233.834 222.334L206.404 214.099ZM297.71 318.975L281.937 342.439L272.743 325.327L297.71 318.975Z" stroke="#FFD5E2"/>
<g id="dots-outer">
<path id="Rectangle 75" d="M165.536 235L167.912 238.536L165.536 242.071L163.159 238.536L165.536 235Z" fill="#FFD5E2"/>
<path id="Rectangle 147" d="M132.536 253L134.912 256.536L132.536 260.071L130.159 256.536L132.536 253Z" fill="#FFD5E2"/>
<path id="Rectangle 77" d="M119.536 277L121.912 280.536L119.536 284.071L117.159 280.536L119.536 277Z" fill="#FFD5E2"/>
<path id="Rectangle 78" d="M119.536 253L121.912 256.536L119.536 260.071L117.159 256.536L119.536 253Z" fill="#FFD5E2"/>
<path id="Rectangle 79" d="M98.5356 285L100.912 288.536L98.5356 292.071L96.1591 288.536L98.5356 285Z" fill="#FFD5E2"/>
<path id="Rectangle 80" d="M78.5356 314L80.9122 317.536L78.5356 321.071L76.1591 317.536L78.5356 314Z" fill="#FFD5E2"/>
<path id="Rectangle 81" d="M108.536 303L110.912 306.536L108.536 310.071L106.159 306.536L108.536 303Z" fill="#FFD5E2"/>
<path id="Rectangle 145" d="M140.536 384L142.912 387.536L140.536 391.071L138.159 387.536L140.536 384Z" fill="#FFD5E2"/>
<path id="Rectangle 146" d="M156.536 408L158.912 411.536L156.536 415.071L154.159 411.536L156.536 408Z" fill="#FFD5E2"/>
<path id="Rectangle 88" d="M108.536 331L110.912 334.536L108.536 338.071L106.159 334.536L108.536 331Z" fill="#FFD5E2"/>
<path id="Rectangle 89" d="M98.5356 345L100.912 348.536L98.5356 352.071L96.1591 348.536L98.5356 345Z" fill="#FFD5E2"/>
<path id="Rectangle 90" d="M122.536 362L124.912 365.536L122.536 369.071L120.159 365.536L122.536 362Z" fill="#FFD5E2"/>
<path id="Rectangle 91" d="M111.536 365L113.912 368.536L111.536 372.071L109.159 368.536L111.536 365Z" fill="#FFD5E2"/>
<path id="Rectangle 92" d="M133.536 397L135.912 400.536L133.536 404.071L131.159 400.536L133.536 397Z" fill="#FFD5E2"/>
<path id="Rectangle 93" d="M163.536 441L165.912 444.536L163.536 448.071L161.159 444.536L163.536 441Z" fill="#FFD5E2"/>
<path id="Rectangle 94" d="M188.536 478L190.912 481.536L188.536 485.071L186.159 481.536L188.536 478Z" fill="#FFD5E2"/>
<path id="Rectangle 95" d="M217.536 436L219.912 439.536L217.536 443.071L215.159 439.536L217.536 436Z" fill="#FFD5E2"/>
<path id="Rectangle 96" d="M198.536 445L200.912 448.536L198.536 452.071L196.159 448.536L198.536 445Z" fill="#FFD5E2"/>
<path id="Rectangle 97" d="M178.536 438L180.912 441.536L178.536 445.071L176.159 441.536L178.536 438Z" fill="#FFD5E2"/>
<path id="Rectangle 98" d="M203.536 425L205.912 428.536L203.536 432.071L201.159 428.536L203.536 425Z" fill="#FFD5E2"/>
<path id="Rectangle 99" d="M230.536 415L232.912 418.536L230.536 422.071L228.159 418.536L230.536 415Z" fill="#FFD5E2"/>
<path id="Rectangle 100" d="M241.536 401L243.912 404.536L241.536 408.071L239.159 404.536L241.536 401Z" fill="#FFD5E2"/>
<path id="Rectangle 101" d="M250.536 383L252.912 386.536L250.536 390.071L248.159 386.536L250.536 383Z" fill="#FFD5E2"/>
<path id="Rectangle 102" d="M240.536 384L242.912 387.536L240.536 391.071L238.159 387.536L240.536 384Z" fill="#FFD5E2"/>
<path id="Rectangle 108" d="M221.536 397L223.912 400.536L221.536 404.071L219.159 400.536L221.536 397Z" fill="#FFD5E2"/>
<path id="Rectangle 111" d="M258.536 362L260.912 365.536L258.536 369.071L256.159 365.536L258.536 362Z" fill="#FFD5E2"/>
<path id="Rectangle 113" d="M282.536 340L284.912 343.536L282.536 347.071L280.159 343.536L282.536 340Z" fill="#FFD5E2"/>
<path id="Rectangle 112" d="M265.536 365L267.912 368.536L265.536 372.071L263.159 368.536L265.536 365Z" fill="#FFD5E2"/>
<path id="Rectangle 114" d="M297.536 315L299.912 318.536L297.536 322.071L295.159 318.536L297.536 315Z" fill="#FFD5E2"/>
<path id="Rectangle 107" d="M184.536 403L186.912 406.536L184.536 410.071L182.159 406.536L184.536 403Z" fill="#FFD5E2"/>
<path id="Rectangle 116" d="M271.536 322L273.912 325.536L271.536 329.071L269.159 325.536L271.536 322Z" fill="#FFD5E2"/>
<path id="Rectangle 117" d="M267.536 344L269.912 347.536L267.536 351.071L265.159 347.536L267.536 344Z" fill="#FFD5E2"/>
<path id="Rectangle 124" d="M278.536 306L280.912 309.536L278.536 313.071L276.159 309.536L278.536 306Z" fill="#FFD5E2"/>
<path id="Rectangle 125" d="M279.536 285L281.912 288.536L279.536 292.071L277.159 288.536L279.536 285Z" fill="#FFD5E2"/>
<path id="Rectangle 126" d="M248.536 256L250.912 259.536L248.536 263.071L246.159 259.536L248.536 256Z" fill="#FFD5E2"/>
<path id="Rectangle 129" d="M267.536 290L269.912 293.536L267.536 297.071L265.159 293.536L267.536 290Z" fill="#FFD5E2"/>
<path id="Rectangle 131" d="M260.536 256L262.912 259.536L260.536 263.071L258.159 259.536L260.536 256Z" fill="#FFD5E2"/>
<path id="Rectangle 132" d="M252.536 245L254.912 248.536L252.536 252.071L250.159 248.536L252.536 245Z" fill="#FFD5E2"/>
<path id="Rectangle 133" d="M234.536 220L236.912 223.536L234.536 227.071L232.159 223.536L234.536 220Z" fill="#FFD5E2"/>
<path id="Rectangle 134" d="M188.536 153L190.912 156.536L188.536 160.071L186.159 156.536L188.536 153Z" fill="#FFD5E2"/>
<path id="Rectangle 135" d="M149.536 206L151.912 209.536L149.536 213.071L147.159 209.536L149.536 206Z" fill="#FFD5E2"/>
<path id="Rectangle 136" d="M131.536 236L133.912 239.536L131.536 243.071L129.159 239.536L131.536 236Z" fill="#FFD5E2"/>
<path id="Rectangle 137" d="M176.536 193L178.912 196.536L176.536 200.071L174.159 196.536L176.536 193Z" fill="#FFD5E2"/>
<path id="Rectangle 138" d="M206.536 211L208.912 214.536L206.536 218.071L204.159 214.536L206.536 211Z" fill="#FFD5E2"/>
<path id="Rectangle 139" d="M195.536 229L197.912 232.536L195.536 236.071L193.159 232.536L195.536 229Z" fill="#FFD5E2"/>
<path id="Rectangle 140" d="M221.536 235L223.912 238.536L221.536 242.071L219.159 238.536L221.536 235Z" fill="#FFD5E2"/>
</g>
<g id="dots-inner">
<path id="Rectangle 67" d="M196.536 303L198.912 306.536L196.536 310.071L194.159 306.536L196.536 303Z" fill="#FFD5E2"/>
<path id="Rectangle 68" d="M203.536 278L205.912 281.536L203.536 285.071L201.159 281.536L203.536 278Z" fill="#FFD5E2"/>
<path id="Rectangle 69" d="M188.536 273L190.912 276.536L188.536 280.071L186.159 276.536L188.536 273Z" fill="#FFD5E2"/>
<path id="Rectangle 70" d="M178.536 277L180.912 280.536L178.536 284.071L176.159 280.536L178.536 277Z" fill="#FFD5E2"/>
<path id="Rectangle 71" d="M167.536 256L169.912 259.536L167.536 263.071L165.159 259.536L167.536 256Z" fill="#FFD5E2"/>
<path id="Rectangle 72" d="M184.536 243L186.912 246.536L184.536 250.071L182.159 246.536L184.536 243Z" fill="#FFD5E2"/>
<path id="Rectangle 73" d="M203.536 250L205.912 253.536L203.536 257.071L201.159 253.536L203.536 250Z" fill="#FFD5E2"/>
<path id="Rectangle 74" d="M150.536 273L152.912 276.536L150.536 280.071L148.159 276.536L150.536 273Z" fill="#FFD5E2"/>
<path id="Rectangle 76" d="M139.536 268L141.912 271.536L139.536 275.071L137.159 271.536L139.536 268Z" fill="#FFD5E2"/>
<path id="Rectangle 82" d="M132.536 296L134.912 299.536L132.536 303.071L130.159 299.536L132.536 296Z" fill="#FFD5E2"/>
<path id="Rectangle 83" d="M145.536 290L147.912 293.536L145.536 297.071L143.159 293.536L145.536 290Z" fill="#FFD5E2"/>
<path id="Rectangle 84" d="M150.536 301L152.912 304.536L150.536 308.071L148.159 304.536L150.536 301Z" fill="#FFD5E2"/>
<path id="Rectangle 85" d="M171.536 314L173.912 317.536L171.536 321.071L169.159 317.536L171.536 314Z" fill="#FFD5E2"/>
<path id="Rectangle 86" d="M149.536 317L151.912 320.536L149.536 324.071L147.159 320.536L149.536 317Z" fill="#FFD5E2"/>
<path id="Rectangle 141" d="M163.536 336L165.912 339.536L163.536 343.071L161.159 339.536L163.536 336Z" fill="#FFD5E2"/>
<path id="Rectangle 142" d="M184.536 340L186.912 343.536L184.536 347.071L182.159 343.536L184.536 340Z" fill="#FFD5E2"/>
<path id="Rectangle 143" d="M171.536 353L173.912 356.536L171.536 360.071L169.159 356.536L171.536 353Z" fill="#FFD5E2"/>
<path id="Rectangle 144" d="M139.536 357L141.912 360.536L139.536 364.071L137.159 360.536L139.536 357Z" fill="#FFD5E2"/>
<path id="Rectangle 87" d="M132.536 336L134.912 339.536L132.536 343.071L130.159 339.536L132.536 336Z" fill="#FFD5E2"/>
<path id="Rectangle 103" d="M209.536 366L211.912 369.536L209.536 373.071L207.159 369.536L209.536 366Z" fill="#FFD5E2"/>
<path id="Rectangle 106" d="M172.536 379L174.912 382.536L172.536 386.071L170.159 382.536L172.536 379Z" fill="#FFD5E2"/>
<path id="Rectangle 109" d="M240.536 357L242.912 360.536L240.536 364.071L238.159 360.536L240.536 357Z" fill="#FFD5E2"/>
<path id="Rectangle 110" d="M231.536 340L233.912 343.536L231.536 347.071L229.159 343.536L231.536 340Z" fill="#FFD5E2"/>
<path id="Rectangle 104" d="M209.536 336L211.912 339.536L209.536 343.071L207.159 339.536L209.536 336Z" fill="#FFD5E2"/>
<path id="Rectangle 105" d="M188.536 357L190.912 360.536L188.536 364.071L186.159 360.536L188.536 357Z" fill="#FFD5E2"/>
<path id="Rectangle 115" d="M150.536 372L152.912 375.536L150.536 379.071L148.159 375.536L150.536 372Z" fill="#FFD5E2"/>
<path id="Rectangle 119" d="M252.536 344L254.912 347.536L252.536 351.071L250.159 347.536L252.536 344Z" fill="#FFD5E2"/>
<path id="Rectangle 120" d="M247.536 336L249.912 339.536L247.536 343.071L245.159 339.536L247.536 336Z" fill="#FFD5E2"/>
<path id="Rectangle 121" d="M231.536 322L233.912 325.536L231.536 329.071L229.159 325.536L231.536 322Z" fill="#FFD5E2"/>
<path id="Rectangle 122" d="M215.536 310L217.912 313.536L215.536 317.071L213.159 313.536L215.536 310Z" fill="#FFD5E2"/>
<path id="Rectangle 123" d="M251.536 302L253.912 305.536L251.536 309.071L249.159 305.536L251.536 302Z" fill="#FFD5E2"/>
<path id="Rectangle 127" d="M235.536 289L237.912 292.536L235.536 296.071L233.159 292.536L235.536 289Z" fill="#FFD5E2"/>
<path id="Rectangle 128" d="M221.536 273L223.912 276.536L221.536 280.071L219.159 276.536L221.536 273Z" fill="#FFD5E2"/>
<path id="Rectangle 130" d="M241.536 279L243.912 282.536L241.536 286.071L239.159 282.536L241.536 279Z" fill="#FFD5E2"/>
<path id="Rectangle 118" d="M252.536 344L254.912 347.536L252.536 351.071L250.159 347.536L252.536 344Z" fill="#FFD5E2"/>
</g>
</g>
</svg>
