<svg width="375" height="667" viewBox="0 0 375 667" fill="none" xmlns="http://www.w3.org/2000/svg">
<g id="new-loading-animation-redux">
<rect width="375" height="667" fill="white"/>
<path id="background-outer" fill-rule="evenodd" clip-rule="evenodd" d="M375 0H0V667H375V0ZM132.741 255.927L165.5 238.439L196 232.5L221.86 238.439L248 259.603L268 293L272 325L268 348.063L259.488 365.453L241 387.5L221.86 400.377L184.25 406.5L139.5 387.5L123 365.453L108 334.952V306.5L119.318 280.5L132.741 255.927Z" fill="#212421"/>
<path id="background-inner" d="M165.5 238.439L132.741 255.927L119.318 280.5L108 306.5V334.952L123 365.453L139.5 387.5L184.25 406.5L221.86 400.377L241 387.5L259.488 365.453L268 348.063L272 325L268 293L248 259.603L221.86 238.439L196 232.5L165.5 238.439Z" fill="#212421"/>
<path id="crystal-outer" d="M188.167 153.502L150.449 209.615M188.167 153.502L176.283 196M188.167 153.502L206 214.5M188.167 153.502L235.028 223.215M298.855 318.167L278.463 309.223M298.855 318.167L279.171 288.885M298.855 318.167L281.889 343.406M298.855 318.167L272 325M188.167 482.833L162.884 445.219M188.167 482.833L198.336 448.5M188.167 482.833L218.146 438.235M188.167 482.833L178.488 441.5M77.4802 318.167L108 306.5M77.4802 318.167L97.5756 288.272M77.4802 318.167L97.5756 348.063M77.4802 318.167L108 334.952M278.463 309.223L272 325M278.463 309.223L279.171 288.885M272 325L268 293M272 325L281.889 343.406M272 325L268 348.063M108 306.5L119.318 280.5M108 306.5L97.5756 288.272M108 306.5L108 334.952M119.318 280.5L97.5756 288.272M119.318 280.5L119.318 255.927M119.318 280.5L132.741 255.927M97.5756 288.272L119.318 255.927M119.318 255.927L131.073 238.439M132.741 255.927L165.5 238.439M132.741 255.927L150.449 209.615M132.741 255.927L131.073 238.439M165.5 238.439L196 232.5M165.5 238.439L176.283 196M165.5 238.439L150.449 209.615M150.449 209.615L176.283 196M150.449 209.615L131.073 238.439M176.283 196L206 214.5M176.283 196L196 232.5M206 214.5L196 232.5M206 214.5L235.028 223.215M206 214.5L221.86 238.439M196 232.5L221.86 238.439M235.028 223.215L221.86 238.439M235.028 223.215L253.102 250.103M221.86 238.439L253.102 250.103M221.86 238.439L248 259.603M253.102 250.103L259.488 259.603M268 293L279.171 288.885M268 293L248 259.603M259.488 259.603L279.171 288.885M259.488 259.603L248 259.603M162.884 445.219L156 411M162.884 445.219L132.741 400.377M162.884 445.219L178.488 441.5M198.336 448.5L218.146 438.235M198.336 448.5L203 428.5M198.336 448.5L178.488 441.5M218.146 438.235L230.993 419.122M230.993 419.122L221.86 400.377M230.993 419.122L203 428.5M230.993 419.122L241 404.236M221.86 400.377L203 428.5M221.86 400.377L241 387.5M221.86 400.377L184.25 406.5M203 428.5L184.25 406.5M203 428.5L178.488 441.5M156 411L132.741 400.377M156 411L139.5 387.5M156 411L178.488 441.5M156 411L184.25 406.5M132.741 400.377L139.5 387.5M132.741 400.377L111.411 368.645M139.5 387.5L123 365.453M139.5 387.5L184.25 406.5M241 387.5L259.488 365.453M241 387.5V404.236M241 387.5L252.962 386.44M264.924 368.645L281.889 343.406M264.924 368.645L259.488 365.453M264.924 368.645L252.962 386.44M281.889 343.406L268 348.063M123 365.453L111.411 368.645M123 365.453L97.5756 348.063M123 365.453L108 334.952M111.411 368.645L97.5756 348.063M97.5756 348.063L108 334.952M178.488 441.5L184.25 406.5M259.488 365.453L268 348.063M241 404.236L252.962 386.44" stroke="#FFD5E2"/>
<path id="crystal-inner" d="M230.993 325L215 313M230.993 325L251.514 304.603M230.993 325L248 339.5M230.993 325V343.406M209.363 339.5L172 318.167M209.363 339.5L196 306.5M209.363 339.5L184.25 343.406M209.363 339.5L215 313M209.363 339.5L230.993 343.406M209.363 339.5L188.167 360.5M209.363 339.5L209.363 368.645M172 318.167L196 306.5M172 318.167L184.25 343.406M172 318.167L150.448 276M172 318.167L149 320.5M172 318.167L150.448 304.603M172 318.167L178.488 280.5M132.741 339.5L108 306.5L132.741 300.5M132.741 339.5L123 365.453L139.5 360.5M132.741 339.5V300.5M132.741 339.5L108 334.952M132.741 339.5L139.5 360.5M132.741 339.5L162.884 339.5M132.741 339.5L149 320.5M132.741 300.5L119.318 280.5L139.5 271M132.741 300.5L139.5 271M132.741 300.5L150.448 304.603M132.741 300.5L145 293M132.741 255.927L139.5 271M165.5 238.439L150.448 276M165.5 238.439L139.5 271M165.5 238.439L168 259.603M268 293L235.028 293M268 293L251.514 304.603M268 293L241 282.024M215 313L196 306.5M215 313L221.859 276M215 313L235.028 293M215 313L203 282.024M203 253L221.859 238.439L221.859 276M203 253L196 232.5L184.25 245.5M203 253L184.25 245.5M203 253L221.859 276M203 253L188.167 276M203 253L203 282.024M196 306.5L178.488 280.5M196 306.5L188.167 276M196 306.5L203 282.024M221.859 400.377L209.363 368.645M139.5 387.5L150.448 375M209.363 368.645L241 360.5M209.363 368.645L184.25 406.5L172 382.5M209.363 368.645L172 382.5M209.363 368.645L241 387.5V360.5M209.363 368.645L188.167 360.5M241 360.5L230.993 343.406M241 360.5L259.488 365.453L253.102 348.063M241 360.5L253.102 348.063M184.25 343.406L172 356.026M184.25 343.406L162.884 339.5M184.25 343.406L188.167 360.5M184.25 245.5L168 259.603M184.25 245.5L188.167 276M150.448 276L139.5 271M150.448 276L145 293M150.448 276L178.488 280.5M150.448 276L168 259.603M172 382.5L150.448 375M172 382.5L172 356.026M172 382.5L188.167 360.5M150.448 375L172 356.026M150.448 375L139.5 360.5M221.859 276L248 259.603L241 282.024M221.859 276L235.028 293M221.859 276L241 282.024M221.859 276L203 282.024M230.993 343.406L248 339.5M235.028 293L251.514 304.603M235.028 293L241 282.024M172 356.026L162.884 339.5M139.5 360.5L162.884 339.5M162.884 339.5L149 320.5M149 320.5L150.448 304.603M150.448 304.603L145 293M251.514 304.603L248 339.5M248 339.5L272 325L253.102 348.063M248 339.5L253.102 348.063M253.102 348.063H268M168 259.603L178.488 280.5M178.488 280.5L188.167 276M188.167 276L203 282.024" stroke="#FFD5E2"/>
<g id="dots-outer">
<path id="Rectangle 75" d="M165.536 235L167.912 238.536L165.536 242.071L163.159 238.536L165.536 235Z" fill="#FFD5E2"/>
<path id="Rectangle 147" d="M132.536 253L134.912 256.536L132.536 260.071L130.159 256.536L132.536 253Z" fill="#FFD5E2"/>
<path id="Rectangle 77" d="M119.536 277L121.912 280.536L119.536 284.071L117.159 280.536L119.536 277Z" fill="#FFD5E2"/>
<path id="Rectangle 78" d="M119.536 253L121.912 256.536L119.536 260.071L117.159 256.536L119.536 253Z" fill="#FFD5E2"/>
<path id="Rectangle 79" d="M98.5356 285L100.912 288.536L98.5356 292.071L96.1591 288.536L98.5356 285Z" fill="#FFD5E2"/>
<path id="Rectangle 80" d="M78.5356 314L80.9122 317.536L78.5356 321.071L76.1591 317.536L78.5356 314Z" fill="#FFD5E2"/>
<path id="Rectangle 81" d="M108.536 303L110.912 306.536L108.536 310.071L106.159 306.536L108.536 303Z" fill="#FFD5E2"/>
<path id="Rectangle 145" d="M140.536 384L142.912 387.536L140.536 391.071L138.159 387.536L140.536 384Z" fill="#FFD5E2"/>
<path id="Rectangle 146" d="M156.536 408L158.912 411.536L156.536 415.071L154.159 411.536L156.536 408Z" fill="#FFD5E2"/>
<path id="Rectangle 88" d="M108.536 331L110.912 334.536L108.536 338.071L106.159 334.536L108.536 331Z" fill="#FFD5E2"/>
<path id="Rectangle 89" d="M98.5356 345L100.912 348.536L98.5356 352.071L96.1591 348.536L98.5356 345Z" fill="#FFD5E2"/>
<path id="Rectangle 90" d="M122.536 362L124.912 365.536L122.536 369.071L120.159 365.536L122.536 362Z" fill="#FFD5E2"/>
<path id="Rectangle 91" d="M111.536 365L113.912 368.536L111.536 372.071L109.159 368.536L111.536 365Z" fill="#FFD5E2"/>
<path id="Rectangle 92" d="M133.536 397L135.912 400.536L133.536 404.071L131.159 400.536L133.536 397Z" fill="#FFD5E2"/>
<path id="Rectangle 93" d="M163.536 441L165.912 444.536L163.536 448.071L161.159 444.536L163.536 441Z" fill="#FFD5E2"/>
<path id="Rectangle 94" d="M188.536 478L190.912 481.536L188.536 485.071L186.159 481.536L188.536 478Z" fill="#FFD5E2"/>
<path id="Rectangle 95" d="M217.536 436L219.912 439.536L217.536 443.071L215.159 439.536L217.536 436Z" fill="#FFD5E2"/>
<path id="Rectangle 96" d="M198.536 445L200.912 448.536L198.536 452.071L196.159 448.536L198.536 445Z" fill="#FFD5E2"/>
<path id="Rectangle 97" d="M178.536 438L180.912 441.536L178.536 445.071L176.159 441.536L178.536 438Z" fill="#FFD5E2"/>
<path id="Rectangle 98" d="M203.536 425L205.912 428.536L203.536 432.071L201.159 428.536L203.536 425Z" fill="#FFD5E2"/>
<path id="Rectangle 99" d="M230.536 415L232.912 418.536L230.536 422.071L228.159 418.536L230.536 415Z" fill="#FFD5E2"/>
<path id="Rectangle 100" d="M241.536 401L243.912 404.536L241.536 408.071L239.159 404.536L241.536 401Z" fill="#FFD5E2"/>
<path id="Rectangle 101" d="M252.536 383L254.912 386.536L252.536 390.071L250.159 386.536L252.536 383Z" fill="#FFD5E2"/>
<path id="Rectangle 102" d="M240.536 384L242.912 387.536L240.536 391.071L238.159 387.536L240.536 384Z" fill="#FFD5E2"/>
<path id="Rectangle 108" d="M221.536 397L223.912 400.536L221.536 404.071L219.159 400.536L221.536 397Z" fill="#FFD5E2"/>
<path id="Rectangle 111" d="M258.536 362L260.912 365.536L258.536 369.071L256.159 365.536L258.536 362Z" fill="#FFD5E2"/>
<path id="Rectangle 113" d="M282.536 340L284.912 343.536L282.536 347.071L280.159 343.536L282.536 340Z" fill="#FFD5E2"/>
<path id="Rectangle 112" d="M265.536 365L267.912 368.536L265.536 372.071L263.159 368.536L265.536 365Z" fill="#FFD5E2"/>
<path id="Rectangle 114" d="M297.536 315L299.912 318.536L297.536 322.071L295.159 318.536L297.536 315Z" fill="#FFD5E2"/>
<path id="Rectangle 107" d="M184.536 403L186.912 406.536L184.536 410.071L182.159 406.536L184.536 403Z" fill="#FFD5E2"/>
<path id="Rectangle 116" d="M271.536 322L273.912 325.536L271.536 329.071L269.159 325.536L271.536 322Z" fill="#FFD5E2"/>
<path id="Rectangle 117" d="M267.536 344L269.912 347.536L267.536 351.071L265.159 347.536L267.536 344Z" fill="#FFD5E2"/>
<path id="Rectangle 124" d="M278.536 306L280.912 309.536L278.536 313.071L276.159 309.536L278.536 306Z" fill="#FFD5E2"/>
<path id="Rectangle 125" d="M279.536 285L281.912 288.536L279.536 292.071L277.159 288.536L279.536 285Z" fill="#FFD5E2"/>
<path id="Rectangle 126" d="M248.536 256L250.912 259.536L248.536 263.071L246.159 259.536L248.536 256Z" fill="#FFD5E2"/>
<path id="Rectangle 129" d="M267.536 290L269.912 293.536L267.536 297.071L265.159 293.536L267.536 290Z" fill="#FFD5E2"/>
<path id="Rectangle 131" d="M260.536 256L262.912 259.536L260.536 263.071L258.159 259.536L260.536 256Z" fill="#FFD5E2"/>
<path id="Rectangle 132" d="M252.536 245L254.912 248.536L252.536 252.071L250.159 248.536L252.536 245Z" fill="#FFD5E2"/>
<path id="Rectangle 133" d="M234.536 220L236.912 223.536L234.536 227.071L232.159 223.536L234.536 220Z" fill="#FFD5E2"/>
<path id="Rectangle 134" d="M188.536 153L190.912 156.536L188.536 160.071L186.159 156.536L188.536 153Z" fill="#FFD5E2"/>
<path id="Rectangle 135" d="M150.536 205L152.912 208.536L150.536 212.071L148.159 208.536L150.536 205Z" fill="#FFD5E2"/>
<path id="Rectangle 136" d="M131.536 236L133.912 239.536L131.536 243.071L129.159 239.536L131.536 236Z" fill="#FFD5E2"/>
<path id="Rectangle 137" d="M176.536 193L178.912 196.536L176.536 200.071L174.159 196.536L176.536 193Z" fill="#FFD5E2"/>
<path id="Rectangle 138" d="M206.536 211L208.912 214.536L206.536 218.071L204.159 214.536L206.536 211Z" fill="#FFD5E2"/>
<path id="Rectangle 139" d="M195.536 229L197.912 232.536L195.536 236.071L193.159 232.536L195.536 229Z" fill="#FFD5E2"/>
<path id="Rectangle 140" d="M221.536 235L223.912 238.536L221.536 242.071L219.159 238.536L221.536 235Z" fill="#FFD5E2"/>
</g>
<g id="dots-inner">
<path id="Rectangle 67" d="M196.536 303L198.912 306.536L196.536 310.071L194.159 306.536L196.536 303Z" fill="#FFD5E2"/>
<path id="Rectangle 68" d="M203.536 278L205.912 281.536L203.536 285.071L201.159 281.536L203.536 278Z" fill="#FFD5E2"/>
<path id="Rectangle 69" d="M188.536 273L190.912 276.536L188.536 280.071L186.159 276.536L188.536 273Z" fill="#FFD5E2"/>
<path id="Rectangle 70" d="M178.536 277L180.912 280.536L178.536 284.071L176.159 280.536L178.536 277Z" fill="#FFD5E2"/>
<path id="Rectangle 71" d="M167.536 256L169.912 259.536L167.536 263.071L165.159 259.536L167.536 256Z" fill="#FFD5E2"/>
<path id="Rectangle 72" d="M184.536 243L186.912 246.536L184.536 250.071L182.159 246.536L184.536 243Z" fill="#FFD5E2"/>
<path id="Rectangle 73" d="M203.536 250L205.912 253.536L203.536 257.071L201.159 253.536L203.536 250Z" fill="#FFD5E2"/>
<path id="Rectangle 74" d="M150.536 273L152.912 276.536L150.536 280.071L148.159 276.536L150.536 273Z" fill="#FFD5E2"/>
<path id="Rectangle 76" d="M139.536 268L141.912 271.536L139.536 275.071L137.159 271.536L139.536 268Z" fill="#FFD5E2"/>
<path id="Rectangle 82" d="M132.536 296L134.912 299.536L132.536 303.071L130.159 299.536L132.536 296Z" fill="#FFD5E2"/>
<path id="Rectangle 83" d="M145.536 290L147.912 293.536L145.536 297.071L143.159 293.536L145.536 290Z" fill="#FFD5E2"/>
<path id="Rectangle 84" d="M150.536 301L152.912 304.536L150.536 308.071L148.159 304.536L150.536 301Z" fill="#FFD5E2"/>
<path id="Rectangle 85" d="M171.536 314L173.912 317.536L171.536 321.071L169.159 317.536L171.536 314Z" fill="#FFD5E2"/>
<path id="Rectangle 86" d="M149.536 317L151.912 320.536L149.536 324.071L147.159 320.536L149.536 317Z" fill="#FFD5E2"/>
<path id="Rectangle 141" d="M163.536 336L165.912 339.536L163.536 343.071L161.159 339.536L163.536 336Z" fill="#FFD5E2"/>
<path id="Rectangle 142" d="M184.536 340L186.912 343.536L184.536 347.071L182.159 343.536L184.536 340Z" fill="#FFD5E2"/>
<path id="Rectangle 143" d="M171.536 353L173.912 356.536L171.536 360.071L169.159 356.536L171.536 353Z" fill="#FFD5E2"/>
<path id="Rectangle 144" d="M139.536 357L141.912 360.536L139.536 364.071L137.159 360.536L139.536 357Z" fill="#FFD5E2"/>
<path id="Rectangle 87" d="M132.536 336L134.912 339.536L132.536 343.071L130.159 339.536L132.536 336Z" fill="#FFD5E2"/>
<path id="Rectangle 103" d="M209.536 366L211.912 369.536L209.536 373.071L207.159 369.536L209.536 366Z" fill="#FFD5E2"/>
<path id="Rectangle 106" d="M172.536 379L174.912 382.536L172.536 386.071L170.159 382.536L172.536 379Z" fill="#FFD5E2"/>
<path id="Rectangle 109" d="M240.536 357L242.912 360.536L240.536 364.071L238.159 360.536L240.536 357Z" fill="#FFD5E2"/>
<path id="Rectangle 110" d="M231.536 340L233.912 343.536L231.536 347.071L229.159 343.536L231.536 340Z" fill="#FFD5E2"/>
<path id="Rectangle 104" d="M209.536 336L211.912 339.536L209.536 343.071L207.159 339.536L209.536 336Z" fill="#FFD5E2"/>
<path id="Rectangle 105" d="M188.536 357L190.912 360.536L188.536 364.071L186.159 360.536L188.536 357Z" fill="#FFD5E2"/>
<path id="Rectangle 115" d="M150.536 372L152.912 375.536L150.536 379.071L148.159 375.536L150.536 372Z" fill="#FFD5E2"/>
<path id="Rectangle 119" d="M252.536 344L254.912 347.536L252.536 351.071L250.159 347.536L252.536 344Z" fill="#FFD5E2"/>
<path id="Rectangle 120" d="M247.536 336L249.912 339.536L247.536 343.071L245.159 339.536L247.536 336Z" fill="#FFD5E2"/>
<path id="Rectangle 121" d="M231.536 322L233.912 325.536L231.536 329.071L229.159 325.536L231.536 322Z" fill="#FFD5E2"/>
<path id="Rectangle 122" d="M215.536 310L217.912 313.536L215.536 317.071L213.159 313.536L215.536 310Z" fill="#FFD5E2"/>
<path id="Rectangle 123" d="M251.536 302L253.912 305.536L251.536 309.071L249.159 305.536L251.536 302Z" fill="#FFD5E2"/>
<path id="Rectangle 127" d="M235.536 289L237.912 292.536L235.536 296.071L233.159 292.536L235.536 289Z" fill="#FFD5E2"/>
<path id="Rectangle 128" d="M221.536 273L223.912 276.536L221.536 280.071L219.159 276.536L221.536 273Z" fill="#FFD5E2"/>
<path id="Rectangle 130" d="M241.536 279L243.912 282.536L241.536 286.071L239.159 282.536L241.536 279Z" fill="#FFD5E2"/>
<path id="Rectangle 118" d="M252.536 344L254.912 347.536L252.536 351.071L250.159 347.536L252.536 344Z" fill="#FFD5E2"/>
</g>
</g>
</svg>
